<svg preserveAspectRatio="none" width="100%" height="100%" overflow="visible" style="display: block;" viewBox="0 0 60 60" fill="none" xmlns="http://www.w3.org/2000/svg">
<g id="material-symbols:fingerprint">
<path id="Vector" d="M30.0625 11.1875C34.4792 11.1875 38.6458 12.1358 42.5625 14.0325C46.4792 15.9292 49.75 18.6683 52.375 22.25C52.6667 22.625 52.7608 22.9583 52.6575 23.25C52.5542 23.5417 52.3767 23.7917 52.125 24C51.8733 24.2083 51.5817 24.3025 51.25 24.2825C50.9183 24.2625 50.6267 24.085 50.375 23.75C48.0833 20.5 45.1358 18.0108 41.5325 16.2825C37.9292 14.5542 34.1058 13.6892 30.0625 13.6875C26.0192 13.6858 22.2275 14.5508 18.6875 16.2825C15.1475 18.0142 12.21 20.5033 9.875 23.75C9.625 24.125 9.33333 24.3333 9 24.375C8.66667 24.4167 8.375 24.3333 8.125 24.125C7.83333 23.9167 7.65583 23.6567 7.5925 23.345C7.52917 23.0333 7.62333 22.71 7.875 22.375C10.4583 18.8333 13.6983 16.0833 17.595 14.125C21.4917 12.1667 25.6475 11.1875 30.0625 11.1875ZM30.0625 17.0625C35.6875 17.0625 40.5208 18.9375 44.5625 22.6875C48.6042 26.4375 50.625 31.0833 50.625 36.625C50.625 38.7083 49.8858 40.4483 48.4075 41.845C46.9292 43.2417 45.1267 43.9392 43 43.9375C40.8733 43.9358 39.0508 43.2383 37.5325 41.845C36.0142 40.4517 35.2533 38.7117 35.25 36.625C35.25 35.25 34.74 34.0933 33.72 33.155C32.7 32.2167 31.4808 31.7483 30.0625 31.75C28.6442 31.7517 27.425 32.2208 26.405 33.1575C25.385 34.0942 24.875 35.25 24.875 36.625C24.875 40.6667 26.0733 44.0417 28.47 46.75C30.8667 49.4583 33.96 51.3542 37.75 52.4375C38.125 52.5625 38.375 52.7708 38.5 53.0625C38.625 53.3542 38.6458 53.6667 38.5625 54C38.4792 54.2917 38.3125 54.5417 38.0625 54.75C37.8125 54.9583 37.5 55.0208 37.125 54.9375C32.7917 53.8542 29.25 51.6975 26.5 48.4675C23.75 45.2375 22.375 41.29 22.375 36.625C22.375 34.5417 23.125 32.7917 24.625 31.375C26.125 29.9583 27.9375 29.25 30.0625 29.25C32.1875 29.25 34 29.9583 35.5 31.375C37 32.7917 37.75 34.5417 37.75 36.625C37.75 38 38.2708 39.1567 39.3125 40.095C40.3542 41.0333 41.5833 41.5017 43 41.5C44.4167 41.4983 45.625 41.03 46.625 40.095C47.625 39.16 48.125 38.0033 48.125 36.625C48.125 31.7917 46.3542 27.7292 42.8125 24.4375C39.2708 21.1458 35.0417 19.5 30.125 19.5C25.2083 19.5 20.9792 21.1458 17.4375 24.4375C13.8958 27.7292 12.125 31.7708 12.125 36.5625C12.125 37.5625 12.2192 38.8125 12.4075 40.3125C12.5958 41.8125 13.0433 43.5625 13.75 45.5625C13.875 45.9375 13.865 46.2708 13.72 46.5625C13.575 46.8542 13.335 47.0625 13 47.1875C12.665 47.3125 12.3425 47.3025 12.0325 47.1575C11.7225 47.0125 11.5033 46.7725 11.375 46.4375C10.75 44.8125 10.3025 43.1983 10.0325 41.595C9.7625 39.9917 9.62667 38.335 9.625 36.625C9.625 31.0833 11.6358 26.4375 15.6575 22.6875C19.6792 18.9375 24.4808 17.0625 30.0625 17.0625ZM30.0625 5.0625C32.7292 5.0625 35.3333 5.385 37.875 6.03C40.4167 6.675 42.875 7.6025 45.25 8.8125C45.625 9.02083 45.8442 9.27083 45.9075 9.5625C45.9708 9.85417 45.9392 10.1458 45.8125 10.4375C45.6858 10.7292 45.4775 10.9583 45.1875 11.125C44.8975 11.2917 44.5433 11.2708 44.125 11.0625C41.9167 9.9375 39.635 9.07333 37.28 8.47C34.925 7.86667 32.5192 7.56417 30.0625 7.5625C27.6458 7.5625 25.2708 7.84417 22.9375 8.4075C20.6042 8.97083 18.375 9.85583 16.25 11.0625C15.9167 11.2708 15.5833 11.3233 15.25 11.22C14.9167 11.1167 14.6667 10.8975 14.5 10.5625C14.3333 10.2275 14.2917 9.92583 14.375 9.6575C14.4583 9.38917 14.6667 9.14917 15 8.9375C17.3333 7.6875 19.7708 6.72917 22.3125 6.0625C24.8542 5.39583 27.4375 5.0625 30.0625 5.0625ZM30.0625 23.125C33.9375 23.125 37.2708 24.4275 40.0625 27.0325C42.8542 29.6375 44.25 32.835 44.25 36.625C44.25 37 44.1358 37.3025 43.9075 37.5325C43.6792 37.7625 43.3767 37.8767 43 37.875C42.6667 37.875 42.375 37.7608 42.125 37.5325C41.875 37.3042 41.75 37.0017 41.75 36.625C41.75 33.5 40.5933 30.8858 38.28 28.7825C35.9667 26.6792 33.2275 25.6267 30.0625 25.625C26.8975 25.6233 24.1792 26.6758 21.9075 28.7825C19.6358 30.8892 18.5 33.5033 18.5 36.625C18.5 40 19.0833 42.865 20.25 45.22C21.4167 47.575 23.125 49.9392 25.375 52.3125C25.625 52.5625 25.75 52.8542 25.75 53.1875C25.75 53.5208 25.625 53.8125 25.375 54.0625C25.125 54.3125 24.8333 54.4375 24.5 54.4375C24.1667 54.4375 23.875 54.3125 23.625 54.0625C21.1667 51.4792 19.2817 48.8442 17.97 46.1575C16.6583 43.4708 16.0017 40.2933 16 36.625C16 32.8333 17.375 29.635 20.125 27.03C22.875 24.425 26.1875 23.1233 30.0625 23.125ZM30 35.375C30.375 35.375 30.6775 35.5 30.9075 35.75C31.1375 36 31.2517 36.2917 31.25 36.625C31.25 39.75 32.375 42.3125 34.625 44.3125C36.875 46.3125 39.5 47.3125 42.5 47.3125C42.75 47.3125 43.1042 47.2917 43.5625 47.25C44.0208 47.2083 44.5 47.1458 45 47.0625C45.375 46.9792 45.6983 47.0317 45.97 47.22C46.2417 47.4083 46.4183 47.6892 46.5 48.0625C46.5833 48.3958 46.5208 48.6875 46.3125 48.9375C46.1042 49.1875 45.8333 49.3542 45.5 49.4375C44.75 49.6458 44.0942 49.7608 43.5325 49.7825C42.9708 49.8042 42.6267 49.8142 42.5 49.8125C38.7917 49.8125 35.5725 48.5625 32.8425 46.0625C30.1125 43.5625 28.7483 40.4167 28.75 36.625C28.75 36.2917 28.865 36 29.095 35.75C29.325 35.5 29.6267 35.375 30 35.375Z" fill="var(--fill-0, black)"/>
</g>
</svg>
