<svg preserveAspectRatio="none" width="100%" height="100%" overflow="visible" style="display: block;" viewBox="0 0 58 32" fill="none" xmlns="http://www.w3.org/2000/svg">
<g id="Right Icon Container">
<circle id="Ellipse 115" cx="15" cy="16" r="7" fill="var(--fill-0, #03C794)"/>
<g id="mdi:camera-outline">
<path id="Vector" d="M46 8H42.83L41 6H35L33.17 8H30C29.4696 8 28.9609 8.21071 28.5858 8.58579C28.2107 8.96086 28 9.46957 28 10V22C28 22.5304 28.2107 23.0391 28.5858 23.4142C28.9609 23.7893 29.4696 24 30 24H46C46.5304 24 47.0391 23.7893 47.4142 23.4142C47.7893 23.0391 48 22.5304 48 22V10C48 9.46957 47.7893 8.96086 47.4142 8.58579C47.0391 8.21071 46.5304 8 46 8ZM46 22H30V10H34.05L35.88 8H40.12L41.95 10H46V22ZM38 11C36.6739 11 35.4021 11.5268 34.4645 12.4645C33.5268 13.4021 33 14.6739 33 16C33 17.3261 33.5268 18.5979 34.4645 19.5355C35.4021 20.4732 36.6739 21 38 21C39.3261 21 40.5979 20.4732 41.5355 19.5355C42.4732 18.5979 43 17.3261 43 16C43 14.6739 42.4732 13.4021 41.5355 12.4645C40.5979 11.5268 39.3261 11 38 11ZM38 19C37.2044 19 36.4413 18.6839 35.8787 18.1213C35.3161 17.5587 35 16.7956 35 16C35 15.2044 35.3161 14.4413 35.8787 13.8787C36.4413 13.3161 37.2044 13 38 13C38.7956 13 39.5587 13.3161 40.1213 13.8787C40.6839 14.4413 41 15.2044 41 16C41 16.7956 40.6839 17.5587 40.1213 18.1213C39.5587 18.6839 38.7956 19 38 19Z" fill="var(--fill-0, black)"/>
</g>
</g>
</svg>
