<svg preserveAspectRatio="none" width="100%" height="100%" overflow="visible" style="display: block;" viewBox="0 0 58 32" fill="none" xmlns="http://www.w3.org/2000/svg">
<g id="Icon Container">
<circle id="Ellipse 115" cx="15" cy="16" r="7" fill="var(--fill-0, #03C794)"/>
<g id="material-symbols:fingerprint">
<path id="Vector" d="M38.025 8.475C39.7917 8.475 41.4583 8.85433 43.025 9.613C44.5917 10.3717 45.9 11.4673 46.95 12.9C47.0667 13.05 47.1043 13.1833 47.063 13.3C47.0217 13.4167 46.9507 13.5167 46.85 13.6C46.7493 13.6833 46.6327 13.721 46.5 13.713C46.3673 13.705 46.2507 13.634 46.15 13.5C45.2333 12.2 44.0543 11.2043 42.613 10.513C41.1717 9.82167 39.6423 9.47567 38.025 9.475C36.4077 9.47433 34.891 9.82033 33.475 10.513C32.059 11.2057 30.884 12.2013 29.95 13.5C29.85 13.65 29.7333 13.7333 29.6 13.75C29.4667 13.7667 29.35 13.7333 29.25 13.65C29.1333 13.5667 29.0623 13.4627 29.037 13.338C29.0117 13.2133 29.0493 13.084 29.15 12.95C30.1833 11.5333 31.4793 10.4333 33.038 9.65C34.5967 8.86667 36.259 8.475 38.025 8.475ZM38.025 10.825C40.275 10.825 42.2083 11.575 43.825 13.075C45.4417 14.575 46.25 16.4333 46.25 18.65C46.25 19.4833 45.9543 20.1793 45.363 20.738C44.7717 21.2967 44.0507 21.5757 43.2 21.575C42.3493 21.5743 41.6203 21.2953 41.013 20.738C40.4057 20.1807 40.1013 19.4847 40.1 18.65C40.1 18.1 39.896 17.6373 39.488 17.262C39.08 16.8867 38.5923 16.6993 38.025 16.7C37.4577 16.7007 36.97 16.8883 36.562 17.263C36.154 17.6377 35.95 18.1 35.95 18.65C35.95 20.2667 36.4293 21.6167 37.388 22.7C38.3467 23.7833 39.584 24.5417 41.1 24.975C41.25 25.025 41.35 25.1083 41.4 25.225C41.45 25.3417 41.4583 25.4667 41.425 25.6C41.3917 25.7167 41.325 25.8167 41.225 25.9C41.125 25.9833 41 26.0083 40.85 25.975C39.1167 25.5417 37.7 24.679 36.6 23.387C35.5 22.095 34.95 20.516 34.95 18.65C34.95 17.8167 35.25 17.1167 35.85 16.55C36.45 15.9833 37.175 15.7 38.025 15.7C38.875 15.7 39.6 15.9833 40.2 16.55C40.8 17.1167 41.1 17.8167 41.1 18.65C41.1 19.2 41.3083 19.6627 41.725 20.038C42.1417 20.4133 42.6333 20.6007 43.2 20.6C43.7667 20.5993 44.25 20.412 44.65 20.038C45.05 19.664 45.25 19.2013 45.25 18.65C45.25 16.7167 44.5417 15.0917 43.125 13.775C41.7083 12.4583 40.0167 11.8 38.05 11.8C36.0833 11.8 34.3917 12.4583 32.975 13.775C31.5583 15.0917 30.85 16.7083 30.85 18.625C30.85 19.025 30.8877 19.525 30.963 20.125C31.0383 20.725 31.2173 21.425 31.5 22.225C31.55 22.375 31.546 22.5083 31.488 22.625C31.43 22.7417 31.334 22.825 31.2 22.875C31.066 22.925 30.937 22.921 30.813 22.863C30.689 22.805 30.6013 22.709 30.55 22.575C30.3 21.925 30.121 21.2793 30.013 20.638C29.905 19.9967 29.8507 19.334 29.85 18.65C29.85 16.4333 30.6543 14.575 32.263 13.075C33.8717 11.575 35.7923 10.825 38.025 10.825ZM38.025 6.025C39.0917 6.025 40.1333 6.154 41.15 6.412C42.1667 6.67 43.15 7.041 44.1 7.525C44.25 7.60833 44.3377 7.70833 44.363 7.825C44.3883 7.94167 44.3757 8.05833 44.325 8.175C44.2743 8.29167 44.191 8.38333 44.075 8.45C43.959 8.51667 43.8173 8.50833 43.65 8.425C42.7667 7.975 41.854 7.62933 40.912 7.388C39.97 7.14667 39.0077 7.02567 38.025 7.025C37.0583 7.025 36.1083 7.13767 35.175 7.363C34.2417 7.58833 33.35 7.94233 32.5 8.425C32.3667 8.50833 32.2333 8.52933 32.1 8.488C31.9667 8.44667 31.8667 8.359 31.8 8.225C31.7333 8.091 31.7167 7.97033 31.75 7.863C31.7833 7.75567 31.8667 7.65967 32 7.575C32.9333 7.075 33.9083 6.69167 34.925 6.425C35.9417 6.15833 36.975 6.025 38.025 6.025ZM38.025 13.25C39.575 13.25 40.9083 13.771 42.025 14.813C43.1417 15.855 43.7 17.134 43.7 18.65C43.7 18.8 43.6543 18.921 43.563 19.013C43.4717 19.105 43.3507 19.1507 43.2 19.15C43.0667 19.15 42.95 19.1043 42.85 19.013C42.75 18.9217 42.7 18.8007 42.7 18.65C42.7 17.4 42.2373 16.3543 41.312 15.513C40.3867 14.6717 39.291 14.2507 38.025 14.25C36.759 14.2493 35.6717 14.6703 34.763 15.513C33.8543 16.3557 33.4 17.4013 33.4 18.65C33.4 20 33.6333 21.146 34.1 22.088C34.5667 23.03 35.25 23.9757 36.15 24.925C36.25 25.025 36.3 25.1417 36.3 25.275C36.3 25.4083 36.25 25.525 36.15 25.625C36.05 25.725 35.9333 25.775 35.8 25.775C35.6667 25.775 35.55 25.725 35.45 25.625C34.4667 24.5917 33.7127 23.5377 33.188 22.463C32.6633 21.3883 32.4007 20.1173 32.4 18.65C32.4 17.1333 32.95 15.854 34.05 14.812C35.15 13.77 36.475 13.2493 38.025 13.25ZM38 18.15C38.15 18.15 38.271 18.2 38.363 18.3C38.455 18.4 38.5007 18.5167 38.5 18.65C38.5 19.9 38.95 20.925 39.85 21.725C40.75 22.525 41.8 22.925 43 22.925C43.1 22.925 43.2417 22.9167 43.425 22.9C43.6083 22.8833 43.8 22.8583 44 22.825C44.15 22.7917 44.2793 22.8127 44.388 22.888C44.4967 22.9633 44.5673 23.0757 44.6 23.225C44.6333 23.3583 44.6083 23.475 44.525 23.575C44.4417 23.675 44.3333 23.7417 44.2 23.775C43.9 23.8583 43.6377 23.9043 43.413 23.913C43.1883 23.9217 43.0507 23.9257 43 23.925C41.5167 23.925 40.229 23.425 39.137 22.425C38.045 21.425 37.4993 20.1667 37.5 18.65C37.5 18.5167 37.546 18.4 37.638 18.3C37.73 18.2 37.8507 18.15 38 18.15Z" fill="var(--fill-0, black)"/>
</g>
</g>
</svg>
