<svg preserveAspectRatio="none" width="100%" height="100%" overflow="visible" style="display: block;" viewBox="0 0 12.2714 12.8466" fill="none" xmlns="http://www.w3.org/2000/svg">
<g id="Vector">
<path d="M6.48868 11.0449C6.60307 11.0487 6.72176 11.0489 6.83659 11.0506C6.92822 11.1285 7.29803 11.4755 7.32508 11.5698C7.27154 11.7024 6.29168 12.6732 6.12402 12.8466C6.07162 12.8019 6.00663 12.7331 5.95666 12.6831L5.31829 12.0323C5.2233 11.9357 4.9437 11.6813 4.91781 11.5576C4.9436 11.4685 5.30449 11.1417 5.3956 11.0537C5.75956 11.043 6.12589 11.0589 6.48868 11.0449ZM6.11887 12.6315L6.21694 12.3599L6.48782 11.6165C6.25746 11.6134 5.97627 11.606 5.7478 11.6161C5.86446 11.95 5.98902 12.303 6.11887 12.6315ZM6.83057 11.1942C6.76872 11.2994 6.7073 11.4049 6.6466 11.5107L6.96945 11.5161C7.025 11.5153 7.0983 11.5165 7.15214 11.5132C7.03717 11.4055 6.93924 11.2986 6.83057 11.1942ZM5.99975 11.1639L5.49427 11.1651C5.55783 11.2659 5.62457 11.3767 5.69 11.4752L5.86059 11.3077C5.90497 11.2634 5.96024 11.2112 5.99975 11.1639ZM5.59394 11.5099C5.55738 11.4493 5.44053 11.2471 5.39645 11.2065C5.30241 11.3013 5.18762 11.424 5.09153 11.5126L5.31216 11.5112C5.41386 11.5142 5.49144 11.5147 5.59394 11.5099ZM6.6098 11.6151L6.25331 12.559C6.34164 12.4679 6.43685 12.3658 6.52748 12.2788C6.72935 12.0723 6.9673 11.8046 7.16917 11.6145L6.6098 11.6151ZM6.74639 11.1655L6.23412 11.1648C6.34107 11.2633 6.45174 11.3959 6.55082 11.4806C6.57645 11.4334 6.60522 11.3771 6.63214 11.3317C6.66507 11.2819 6.71002 11.2099 6.74639 11.1655ZM6.09754 11.5097L6.4307 11.5101C6.34422 11.4228 6.20119 11.2712 6.10914 11.1991C6.00219 11.3113 5.90784 11.4109 5.79144 11.513C5.89352 11.5111 5.99546 11.51 6.09754 11.5097ZM5.96224 12.5255C5.84928 12.223 5.73877 11.9194 5.63094 11.615C5.44225 11.6131 5.25352 11.6135 5.06482 11.6164C5.33524 11.8895 5.59624 12.1718 5.87147 12.4402C5.90054 12.4684 5.92974 12.5014 5.96224 12.5255Z" fill="url(#paint0_linear_0_105)"/>
<path d="M6.34336 7.77198C7.75761 7.8039 10.4624 7.42751 11.6248 6.61543C11.8534 6.45569 12.1005 6.23564 12.1492 5.94652C12.181 5.75711 12.116 5.57569 12.0059 5.4232C11.6385 4.91477 10.7987 4.62839 10.2187 4.46251C10.0896 4.42562 9.97518 4.38122 9.8416 4.36074L9.85219 4.35316C9.89443 4.35753 9.93638 4.36389 9.9779 4.37225C11.6288 4.69463 13.5869 5.89848 11.0626 7.06978C9.88097 7.61798 8.47317 7.77469 7.19179 7.89127C7.02844 7.90612 6.47265 7.94438 6.33348 7.91228C6.25073 8.01735 6.19475 8.09221 6.12231 8.20443C6.05845 8.13288 5.95738 8.0007 5.90526 7.92249C5.66562 7.9341 5.19465 7.90615 4.94645 7.88536C3.62011 7.7742 2.18477 7.55698 0.982119 6.95803C0.650063 6.7891 0.129178 6.44417 0.0271836 6.0656C-0.214031 5.17018 1.21331 4.68153 1.80932 4.49589L1.81842 4.52209C0.848125 4.81567 -0.812012 5.70584 0.729021 6.67526C1.66102 7.26156 2.96072 7.48935 4.03578 7.648C4.62603 7.73511 5.28208 7.75834 5.88064 7.77472C5.95351 7.69979 6.04099 7.5392 6.14006 7.54009C6.2052 7.57559 6.29454 7.70656 6.34336 7.77198Z" fill="url(#paint1_linear_0_105)"/>
<path d="M5.86704 2.17001C6.56843 2.13706 7.10203 2.23263 7.7138 2.61405C8.4391 3.06628 8.93103 3.816 9.12388 4.64622C9.14107 4.72011 9.15467 4.80209 9.11315 4.86889C9.0712 4.89364 9.09282 4.8895 9.04657 4.88428C8.94249 4.80679 8.93619 4.57542 8.89567 4.45071C8.78643 4.11421 8.63839 3.79545 8.43352 3.50934C7.9874 2.88855 7.3122 2.47328 6.55898 2.35642C4.97976 2.15771 3.65841 3.12379 3.28859 4.67704C3.28199 4.70477 3.25329 4.71741 3.23173 4.73133C3.17996 4.73194 3.20051 4.73703 3.15401 4.70933C3.14752 4.69785 3.13093 4.66812 3.13369 4.65412C3.34051 3.60226 4.08732 2.69864 5.1 2.33809C5.37144 2.24144 5.58157 2.20664 5.86704 2.17001Z" fill="url(#paint2_linear_0_105)"/>
<path d="M5.98945 2.84694C6.94239 2.72096 7.99255 3.46476 8.34503 4.31906C8.37796 4.39908 8.43351 4.49609 8.35019 4.56735C8.30623 4.56321 8.25713 4.52587 8.24052 4.48906C7.8866 3.70565 7.28185 3.12998 6.39863 3.02482C5.76235 2.94906 5.2074 3.12608 4.68874 3.53859C4.33489 3.84114 4.04646 4.288 3.95231 4.74622C3.87796 5.10805 3.88005 5.48597 3.47048 5.64206C3.35655 5.68548 3.05003 5.84022 2.99048 5.64972C2.97866 5.61249 2.98219 5.57206 3.00024 5.53744C3.02038 5.49917 3.05653 5.47199 3.09876 5.46335C3.17114 5.44813 3.21666 5.47649 3.27276 5.51459L3.28804 5.52508C3.81149 5.36563 3.6855 5.01769 3.82868 4.54634C3.92375 4.23703 4.07936 3.94991 4.28636 3.70181C4.73746 3.16625 5.30192 2.90414 5.98945 2.84694Z" fill="url(#paint3_linear_0_105)"/>
<path d="M5.9505 3.53694C6.22639 3.47377 6.69027 3.59878 6.94439 3.73597C7.37162 3.96881 7.68931 4.36254 7.82761 4.83059C7.86441 4.95218 7.88889 5.0772 7.90063 5.20374C7.91481 5.35438 7.93643 6.22474 7.8773 6.31853C7.8551 6.35358 7.83864 6.35748 7.80141 6.36822C7.77335 6.35884 7.75617 6.35999 7.74758 6.33819C7.71737 6.2618 7.73527 6.13115 7.73656 6.05007C7.74529 5.47298 7.8027 4.95409 7.4727 4.44505C7.22315 4.05999 6.8761 3.822 6.43242 3.7253C6.31516 3.70122 6.19547 3.69094 6.07592 3.69465C5.388 3.71822 4.79083 4.17768 4.58898 4.83863C4.47534 5.21303 4.54332 5.63471 4.24343 5.97573C4.20903 6.01485 4.1806 6.01601 4.13815 6.01393C4.11766 5.99775 4.10228 5.99325 4.10371 5.97091C4.11309 5.82495 4.27183 5.62182 4.30422 5.47655C4.33007 5.35628 4.34116 5.22865 4.35744 5.10609C4.46893 4.26712 5.10641 3.6232 5.9505 3.53694Z" fill="url(#paint4_linear_0_105)"/>
<path d="M6.06275 4.28482C6.0775 4.28239 6.08609 4.28097 6.10112 4.28071C6.76328 4.26926 7.2787 4.86359 7.2608 5.51229C7.25908 5.57284 7.26266 5.58427 7.219 5.62816C7.17318 5.64032 7.17161 5.64121 7.12894 5.6248C6.98878 5.45787 7.21799 4.99019 6.63343 4.60565C6.42368 4.46799 6.16741 4.42138 5.92287 4.4764C5.57822 4.55068 5.25522 4.85654 5.19556 5.19795C5.11393 5.66511 5.07606 5.94871 4.81391 6.35933C4.61234 6.66784 4.29738 6.91893 3.96132 7.06381C3.88143 7.09826 3.79525 7.11756 3.71446 7.14924C3.63006 7.18128 3.54301 7.25391 3.44984 7.25346C3.35855 7.25303 3.27003 7.21585 3.26913 7.1142C3.32962 6.92159 3.58008 6.96491 3.72925 6.98946C3.92047 6.87378 4.09033 6.83853 4.29621 6.67376C4.6337 6.40366 4.85039 6.04902 4.94146 5.62598C5.01859 5.2677 5.01391 4.99574 5.26356 4.69415C5.48265 4.42949 5.72966 4.3198 6.06275 4.28482Z" fill="url(#paint5_linear_0_105)"/>
<path d="M6.03726 5.10107C6.10513 5.09559 6.17557 5.09359 6.24214 5.11026C6.3584 5.13878 6.45776 5.21421 6.51674 5.31873C6.64703 5.54495 6.57573 6.08248 6.5826 6.3498C6.58318 6.37538 6.54509 6.40292 6.52347 6.41434C6.4841 6.41216 6.43299 6.40176 6.42626 6.35072C6.37858 6.12088 6.46463 5.74796 6.40665 5.53188C6.2954 5.11658 5.83124 5.20661 5.80103 5.63987C5.77798 5.97 5.65632 6.31028 5.51141 6.60029C5.41806 6.79834 4.92868 7.53385 4.70758 7.49939C4.67401 7.46696 4.64988 7.40857 4.68526 7.37559C4.91446 7.16199 5.07467 7.00003 5.24376 6.731C5.40983 6.4705 5.52736 6.18183 5.5906 5.87908C5.66111 5.52605 5.61896 5.22825 6.03726 5.10107Z" fill="url(#paint6_linear_0_105)"/>
<path d="M8.38927 4.7752C8.43623 4.7863 8.44268 4.78782 8.48047 4.81754C8.63438 5.10349 8.55721 6.99507 8.30609 7.22003C8.24668 7.20505 8.23551 7.19952 8.20759 7.158C8.20587 7.0872 8.32113 6.61933 8.34045 6.46841C8.39028 6.07958 8.3857 5.71601 8.37639 5.32192C8.37295 5.17665 8.34231 4.99311 8.34661 4.84656C8.34718 4.83097 8.37796 4.78979 8.38927 4.7752Z" fill="url(#paint7_linear_0_105)"/>
<path d="M6.1163 0C6.15739 0.0655378 6.13448 0.359559 6.27164 0.516277C6.43213 0.699717 6.67953 0.704535 6.90903 0.731774C6.27708 0.758926 6.19375 0.908497 6.1236 1.51309C6.08122 1.31692 6.09339 1.10252 5.9505 0.927783C5.80747 0.752987 5.54553 0.747105 5.33481 0.729012C5.94048 0.676159 6.02839 0.600166 6.1163 0Z" fill="url(#paint8_linear_0_105)"/>
<path d="M11.1515 4.00998C10.5 2.45783 8.94807 1.33461 7.35844 0.922088C7.28042 0.901809 7.19924 0.883746 7.12049 0.86364L7.13238 0.853228C7.48272 0.880107 8.01903 1.05686 8.3436 1.18837C9.57788 1.68854 10.677 2.74672 11.1778 3.99983L11.1515 4.00998Z" fill="url(#paint9_linear_0_105)"/>
<path d="M11.3926 7.62221L11.4186 7.64811C11.0149 8.97769 10.0997 10.0905 8.8762 10.7399C8.39572 10.9962 8.04681 11.1034 7.53841 11.2467L7.51092 11.22C7.90035 11.1492 8.48534 10.8646 8.82938 10.6734C9.98821 10.0293 11.0285 8.92639 11.3926 7.62221Z" fill="url(#paint10_linear_0_105)"/>
<path d="M0.76911 7.31733C0.777299 7.33384 0.801924 7.43148 0.80702 7.45271C1.22617 9.19994 2.7038 10.538 4.35794 11.1084C4.52449 11.1658 4.69637 11.2057 4.86115 11.2679C4.69544 11.2574 4.47202 11.1862 4.31436 11.139C3.6404 10.9371 2.89877 10.5446 2.37725 10.0631C1.74456 9.47901 1.1699 8.70582 0.90273 7.87913C0.851232 7.71979 0.777442 7.48462 0.76911 7.31733Z" fill="url(#paint11_linear_0_105)"/>
<path d="M5.07758 8.07659L5.3119 8.07512C4.84222 8.55017 4.73 8.6743 4.08998 8.95291C4.01914 8.98313 3.90068 9.00761 3.86711 8.91623C3.89726 8.79963 4.13766 8.75734 4.23728 8.70638C4.52455 8.55946 4.87868 8.33296 5.07758 8.07659Z" fill="url(#paint12_linear_0_105)"/>
<path d="M5.5465 8.66394C5.61684 8.66606 5.60452 8.65551 5.6558 8.69058C5.74187 8.92195 4.86271 9.47512 4.67491 9.57733C4.60967 9.59023 4.59367 9.57583 4.55175 9.53168C4.54044 9.41181 4.80219 9.30347 4.90122 9.24032C5.14568 9.08419 5.36356 8.88959 5.5465 8.66394Z" fill="url(#paint13_linear_0_105)"/>
<path d="M7.14469 5.94058C7.16531 5.94892 7.21413 5.96363 7.22114 5.97978C7.33668 6.24788 6.96129 6.98717 6.78662 7.12515C6.72864 7.11175 6.71289 7.10759 6.68511 7.05558C6.6844 6.94945 6.81941 6.82051 6.87066 6.72913C6.99708 6.50347 7.03445 6.25632 7.09243 6.0083C7.09644 5.99135 7.13138 5.95437 7.14469 5.94058Z" fill="url(#paint14_linear_0_105)"/>
<path d="M6.57974 8.74336C6.5962 8.74631 6.64159 8.75571 6.65276 8.76584C6.86937 8.96341 7.05664 9.19848 7.32122 9.33738C7.38693 9.37186 7.51679 9.43813 7.53927 9.51367C7.53669 9.56342 7.52867 9.56968 7.50104 9.61373C7.28027 9.57678 6.61639 9.05275 6.54638 8.84407C6.54466 8.79318 6.55111 8.78627 6.57974 8.74336Z" fill="url(#paint15_linear_0_105)"/>
<path d="M7.01669 8.23132C7.0867 8.30214 7.15314 8.34464 7.24376 8.38652C7.25593 8.39756 7.38321 8.47088 7.40125 8.47568C7.5815 8.61814 7.75947 8.73464 7.96434 8.83557C8.05755 8.8815 8.14016 8.89734 8.12312 9.01205C8.1025 9.0316 8.08031 9.05202 8.04881 9.04351C7.6435 8.9341 7.24076 8.56455 6.99823 8.2538L7.01669 8.23132Z" fill="url(#paint16_linear_0_105)"/>
<path d="M7.69017 6.59263L7.75689 6.59459C7.85682 6.66433 7.79053 6.82264 7.75446 6.91597C7.70807 7.03637 7.5052 7.49909 7.40183 7.5452C7.34356 7.54541 7.31736 7.55112 7.27383 7.52151C7.26811 7.49318 7.26338 7.46361 7.28228 7.43797C7.36861 7.32091 7.41714 7.22563 7.482 7.10329C7.55387 6.9675 7.62059 6.69884 7.69017 6.59263Z" fill="url(#paint17_linear_0_105)"/>
<path d="M9.07377 5.10317L9.13433 5.11865C9.23942 5.19944 9.22439 5.87718 9.16154 5.98887C9.11973 5.99277 9.12145 5.99281 9.08064 5.98219C8.98114 5.88765 9.03225 5.49699 9.02266 5.36258C9.0165 5.27398 9.0208 5.17727 9.07377 5.10317Z" fill="url(#paint18_linear_0_105)"/>
<path d="M2.20617 1.73992C2.23911 1.79053 2.24556 1.87826 2.30602 1.9565C2.39325 2.06936 2.49941 2.06714 2.63385 2.0854C2.33597 2.13369 2.27133 2.17993 2.21131 2.48395C2.13192 2.16984 2.08413 2.1494 1.77896 2.08323C2.06022 2.05503 2.12461 2.01625 2.20617 1.73992Z" fill="url(#paint19_linear_0_105)"/>
<path d="M3.91595 7.93036C3.98013 7.93178 4.11577 7.9609 4.18431 7.97362C4.0119 8.08978 3.74229 8.19773 3.54904 8.27023C3.46643 8.30539 3.4188 8.34081 3.3452 8.28097C3.28442 8.12809 3.77362 8.01685 3.91595 7.93036Z" fill="url(#paint20_linear_0_105)"/>
<path d="M5.0095 0.875145C5.02393 0.871823 5.07499 0.871162 5.09281 0.870544L5.07291 0.884335L5.10071 0.873031C4.23387 1.06058 3.51953 1.39827 2.7805 1.88764C2.74292 1.91455 2.73957 1.91988 2.69553 1.92637C2.69771 1.91887 2.70015 1.90756 2.70647 1.90259C3.35811 1.38856 4.19388 1.00136 5.0095 0.875145Z" fill="url(#paint21_linear_0_105)"/>
<path d="M8.02519 7.96886C8.03378 7.96993 8.04223 7.97103 8.05068 7.97211L8.0617 7.97409C8.15261 7.98971 8.38584 8.21414 8.51054 8.24197C8.54848 8.25041 8.7346 8.3366 8.75178 8.36726C8.7545 8.41509 8.7515 8.40229 8.71713 8.45207C8.51856 8.45375 8.08232 8.23075 7.99169 8.05942C7.99054 8.00379 7.98682 8.02546 8.02519 7.96886Z" fill="url(#paint22_linear_0_105)"/>
<path d="M3.8032 6.14522L3.8646 6.15619C3.90524 6.19285 3.89363 6.17415 3.90852 6.22696C3.87385 6.39417 3.43581 6.46057 3.28897 6.48569C3.25219 6.48059 3.25072 6.47782 3.2186 6.46159C3.18313 6.41269 3.19006 6.43411 3.18474 6.37937C3.19839 6.35813 3.21531 6.33071 3.24253 6.32541C3.45882 6.28325 3.60588 6.2491 3.8032 6.14522Z" fill="url(#paint23_linear_0_105)"/>
<path d="M2.00293 2.57964C2.00268 2.66694 1.82514 2.83085 1.76843 2.9102C1.68098 3.02478 1.60166 3.1455 1.51868 3.26328C1.22534 3.67972 1.07448 4.10126 0.906209 4.57612C0.905966 4.56948 0.905722 4.56282 0.905479 4.55618C1.01823 3.91987 1.57937 2.99265 2.00293 2.57964Z" fill="url(#paint24_linear_0_105)"/>
<path d="M6.08609 8.35304C6.11501 8.35552 6.12517 8.36105 6.15152 8.37144C6.21838 8.45592 6.19576 8.64743 6.14235 8.73412C6.12603 8.72896 6.10198 8.71779 6.08537 8.71081C6.01522 8.62807 6.0281 8.44023 6.08609 8.35304Z" fill="url(#paint25_linear_0_105)"/>
<path d="M6.08251 6.51338C6.2377 6.53587 6.2095 6.77997 6.15195 6.864C6.11043 6.85929 6.10828 6.85981 6.07406 6.8373C6.01708 6.75375 6.02538 6.5924 6.08251 6.51338Z" fill="url(#paint26_linear_0_105)"/>
<path d="M6.08394 7.01648C6.23971 7.04107 6.20563 7.27242 6.14636 7.36601C5.99388 7.32829 6.02166 7.1157 6.08394 7.01648Z" fill="url(#paint27_linear_0_105)"/>
<path d="M6.09811 10.2087C6.11816 10.2169 6.1362 10.2276 6.15538 10.238C6.21465 10.3254 6.20377 10.4836 6.13462 10.5623L6.07993 10.5338C6.01149 10.4482 6.02624 10.2889 6.09811 10.2087Z" fill="url(#paint28_linear_0_105)"/>
<path d="M6.86737 8.09678C6.92736 8.09559 7.00467 8.09191 7.06294 8.09501C7.18277 8.23817 7.27483 8.3417 7.40125 8.47568C7.38321 8.47088 7.25593 8.39756 7.24376 8.38652C7.21012 8.32722 7.08771 8.21103 7.01741 8.21117L7.01669 8.23132L6.99823 8.2538L6.86737 8.09678Z" fill="url(#paint29_linear_0_105)"/>
<path d="M6.09697 9.73671L6.14879 9.76298C6.2158 9.84832 6.20434 10.0024 6.13376 10.083L6.0815 10.0587C6.01851 9.97368 6.0218 9.81214 6.09697 9.73671Z" fill="url(#paint30_linear_0_105)"/>
<path d="M9.00706 6.60078C9.07678 6.61429 9.05888 6.60125 9.09997 6.64211C9.1319 6.73651 9.07492 6.84314 9.03898 6.93932L9.00706 6.94805C8.91829 6.90028 8.9664 6.67565 9.00706 6.60078Z" fill="url(#paint31_linear_0_105)"/>
<path d="M6.12775 9.19729C6.16282 9.24029 6.1455 9.32342 6.15266 9.38158C6.16612 9.4899 6.19633 9.50722 6.14665 9.6093C6.12259 9.60601 6.09095 9.6033 6.0742 9.58614C6.00276 9.51298 6.07649 9.26012 6.12775 9.19729Z" fill="url(#paint32_linear_0_105)"/>
<path d="M0.793934 5.18072C0.804286 5.23432 0.775294 5.34852 0.765086 5.40576C0.712542 5.70065 0.666928 5.99645 0.654916 6.2961C0.61291 6.00839 0.689935 5.45366 0.793934 5.18072Z" fill="url(#paint33_linear_0_105)"/>
<path d="M6.08651 8.82497C6.24185 8.85932 6.15323 9.05248 6.12932 9.16438L6.12531 9.17389C6.03927 9.0783 6.05001 8.93974 6.08651 8.82497Z" fill="url(#paint34_linear_0_105)"/>
<path d="M11.4667 5.22133C11.5744 5.3761 11.6029 5.99703 11.5992 6.1968C11.5987 6.19568 11.4779 5.29894 11.4667 5.22133Z" fill="url(#paint35_linear_0_105)"/>
<path d="M1.80932 4.49589C1.96207 4.44357 2.16228 4.39707 2.32121 4.35748L2.34601 4.37438L1.81842 4.52209L1.80932 4.49589Z" fill="url(#paint36_linear_0_105)"/>
<path d="M11.1778 3.99983C11.2115 4.07335 11.3158 4.34151 11.315 4.41401C11.2833 4.35831 11.1815 4.08527 11.1515 4.00998L11.1778 3.99983Z" fill="url(#paint37_linear_0_105)"/>
<path d="M7.01669 8.23132L7.01741 8.21117C7.08771 8.21103 7.21012 8.32722 7.24376 8.38652C7.15314 8.34464 7.0867 8.30214 7.01669 8.23132Z" fill="url(#paint38_linear_0_105)"/>
<path d="M2.32121 4.35748C2.40302 4.34153 2.48689 4.3163 2.56639 4.32533C2.49591 4.34688 2.41905 4.3637 2.34601 4.37438L2.32121 4.35748Z" fill="url(#paint39_linear_0_105)"/>
<path d="M11.3926 7.62221C11.4042 7.58105 11.4245 7.48851 11.4513 7.4635C11.4543 7.53007 11.4358 7.58381 11.4186 7.64811L11.3926 7.62221Z" fill="url(#paint40_linear_0_105)"/>
<path d="M7.53841 11.2467C7.47642 11.2592 7.43246 11.2713 7.36918 11.2661C7.39524 11.2404 7.47112 11.2292 7.51092 11.22L7.53841 11.2467Z" fill="url(#paint41_linear_0_105)"/>
</g>
<defs>
<linearGradient id="paint0_linear_0_105" x1="12.2738" y1="-0.00669075" x2="3.24647" y2="9.24766" gradientUnits="userSpaceOnUse">
<stop stop-color="#3852AF"/>
<stop offset="1" stop-color="#010204"/>
</linearGradient>
<linearGradient id="paint1_linear_0_105" x1="12.2738" y1="-0.00669075" x2="3.24647" y2="9.24766" gradientUnits="userSpaceOnUse">
<stop stop-color="#3852AF"/>
<stop offset="1" stop-color="#010204"/>
</linearGradient>
<linearGradient id="paint2_linear_0_105" x1="12.2738" y1="-0.00669075" x2="3.24647" y2="9.24766" gradientUnits="userSpaceOnUse">
<stop stop-color="#3852AF"/>
<stop offset="1" stop-color="#010204"/>
</linearGradient>
<linearGradient id="paint3_linear_0_105" x1="12.2738" y1="-0.00669075" x2="3.24647" y2="9.24766" gradientUnits="userSpaceOnUse">
<stop stop-color="#3852AF"/>
<stop offset="1" stop-color="#010204"/>
</linearGradient>
<linearGradient id="paint4_linear_0_105" x1="12.2738" y1="-0.00669075" x2="3.24647" y2="9.24766" gradientUnits="userSpaceOnUse">
<stop stop-color="#3852AF"/>
<stop offset="1" stop-color="#010204"/>
</linearGradient>
<linearGradient id="paint5_linear_0_105" x1="12.2738" y1="-0.00669075" x2="3.24647" y2="9.24766" gradientUnits="userSpaceOnUse">
<stop stop-color="#3852AF"/>
<stop offset="1" stop-color="#010204"/>
</linearGradient>
<linearGradient id="paint6_linear_0_105" x1="12.2738" y1="-0.00669075" x2="3.24647" y2="9.24766" gradientUnits="userSpaceOnUse">
<stop stop-color="#3852AF"/>
<stop offset="1" stop-color="#010204"/>
</linearGradient>
<linearGradient id="paint7_linear_0_105" x1="12.2738" y1="-0.00669075" x2="3.24647" y2="9.24766" gradientUnits="userSpaceOnUse">
<stop stop-color="#3852AF"/>
<stop offset="1" stop-color="#010204"/>
</linearGradient>
<linearGradient id="paint8_linear_0_105" x1="12.2738" y1="-0.00669075" x2="3.24647" y2="9.24766" gradientUnits="userSpaceOnUse">
<stop stop-color="#3852AF"/>
<stop offset="1" stop-color="#010204"/>
</linearGradient>
<linearGradient id="paint9_linear_0_105" x1="12.2738" y1="-0.00669075" x2="3.24647" y2="9.24766" gradientUnits="userSpaceOnUse">
<stop stop-color="#3852AF"/>
<stop offset="1" stop-color="#010204"/>
</linearGradient>
<linearGradient id="paint10_linear_0_105" x1="12.2738" y1="-0.00669075" x2="3.24647" y2="9.24766" gradientUnits="userSpaceOnUse">
<stop stop-color="#3852AF"/>
<stop offset="1" stop-color="#010204"/>
</linearGradient>
<linearGradient id="paint11_linear_0_105" x1="12.2738" y1="-0.00669075" x2="3.24647" y2="9.24766" gradientUnits="userSpaceOnUse">
<stop stop-color="#3852AF"/>
<stop offset="1" stop-color="#010204"/>
</linearGradient>
<linearGradient id="paint12_linear_0_105" x1="12.2738" y1="-0.00669075" x2="3.24647" y2="9.24766" gradientUnits="userSpaceOnUse">
<stop stop-color="#3852AF"/>
<stop offset="1" stop-color="#010204"/>
</linearGradient>
<linearGradient id="paint13_linear_0_105" x1="12.2738" y1="-0.00669075" x2="3.24647" y2="9.24766" gradientUnits="userSpaceOnUse">
<stop stop-color="#3852AF"/>
<stop offset="1" stop-color="#010204"/>
</linearGradient>
<linearGradient id="paint14_linear_0_105" x1="12.2738" y1="-0.00669075" x2="3.24647" y2="9.24766" gradientUnits="userSpaceOnUse">
<stop stop-color="#3852AF"/>
<stop offset="1" stop-color="#010204"/>
</linearGradient>
<linearGradient id="paint15_linear_0_105" x1="12.2738" y1="-0.00669075" x2="3.24647" y2="9.24766" gradientUnits="userSpaceOnUse">
<stop stop-color="#3852AF"/>
<stop offset="1" stop-color="#010204"/>
</linearGradient>
<linearGradient id="paint16_linear_0_105" x1="12.2738" y1="-0.00669075" x2="3.24647" y2="9.24766" gradientUnits="userSpaceOnUse">
<stop stop-color="#3852AF"/>
<stop offset="1" stop-color="#010204"/>
</linearGradient>
<linearGradient id="paint17_linear_0_105" x1="12.2738" y1="-0.00669075" x2="3.24647" y2="9.24766" gradientUnits="userSpaceOnUse">
<stop stop-color="#3852AF"/>
<stop offset="1" stop-color="#010204"/>
</linearGradient>
<linearGradient id="paint18_linear_0_105" x1="12.2738" y1="-0.00669075" x2="3.24647" y2="9.24766" gradientUnits="userSpaceOnUse">
<stop stop-color="#3852AF"/>
<stop offset="1" stop-color="#010204"/>
</linearGradient>
<linearGradient id="paint19_linear_0_105" x1="12.2738" y1="-0.00669075" x2="3.24647" y2="9.24766" gradientUnits="userSpaceOnUse">
<stop stop-color="#3852AF"/>
<stop offset="1" stop-color="#010204"/>
</linearGradient>
<linearGradient id="paint20_linear_0_105" x1="12.2738" y1="-0.00669075" x2="3.24647" y2="9.24766" gradientUnits="userSpaceOnUse">
<stop stop-color="#3852AF"/>
<stop offset="1" stop-color="#010204"/>
</linearGradient>
<linearGradient id="paint21_linear_0_105" x1="12.2738" y1="-0.00669075" x2="3.24647" y2="9.24766" gradientUnits="userSpaceOnUse">
<stop stop-color="#3852AF"/>
<stop offset="1" stop-color="#010204"/>
</linearGradient>
<linearGradient id="paint22_linear_0_105" x1="12.2738" y1="-0.00669075" x2="3.24647" y2="9.24766" gradientUnits="userSpaceOnUse">
<stop stop-color="#3852AF"/>
<stop offset="1" stop-color="#010204"/>
</linearGradient>
<linearGradient id="paint23_linear_0_105" x1="12.2738" y1="-0.00669075" x2="3.24647" y2="9.24766" gradientUnits="userSpaceOnUse">
<stop stop-color="#3852AF"/>
<stop offset="1" stop-color="#010204"/>
</linearGradient>
<linearGradient id="paint24_linear_0_105" x1="12.2738" y1="-0.00669075" x2="3.24647" y2="9.24766" gradientUnits="userSpaceOnUse">
<stop stop-color="#3852AF"/>
<stop offset="1" stop-color="#010204"/>
</linearGradient>
<linearGradient id="paint25_linear_0_105" x1="12.2738" y1="-0.00669075" x2="3.24647" y2="9.24766" gradientUnits="userSpaceOnUse">
<stop stop-color="#3852AF"/>
<stop offset="1" stop-color="#010204"/>
</linearGradient>
<linearGradient id="paint26_linear_0_105" x1="12.2738" y1="-0.00669075" x2="3.24647" y2="9.24766" gradientUnits="userSpaceOnUse">
<stop stop-color="#3852AF"/>
<stop offset="1" stop-color="#010204"/>
</linearGradient>
<linearGradient id="paint27_linear_0_105" x1="12.2738" y1="-0.00669075" x2="3.24647" y2="9.24766" gradientUnits="userSpaceOnUse">
<stop stop-color="#3852AF"/>
<stop offset="1" stop-color="#010204"/>
</linearGradient>
<linearGradient id="paint28_linear_0_105" x1="12.2738" y1="-0.00669075" x2="3.24647" y2="9.24766" gradientUnits="userSpaceOnUse">
<stop stop-color="#3852AF"/>
<stop offset="1" stop-color="#010204"/>
</linearGradient>
<linearGradient id="paint29_linear_0_105" x1="12.2738" y1="-0.00669075" x2="3.24647" y2="9.24766" gradientUnits="userSpaceOnUse">
<stop stop-color="#3852AF"/>
<stop offset="1" stop-color="#010204"/>
</linearGradient>
<linearGradient id="paint30_linear_0_105" x1="12.2738" y1="-0.00669075" x2="3.24647" y2="9.24766" gradientUnits="userSpaceOnUse">
<stop stop-color="#3852AF"/>
<stop offset="1" stop-color="#010204"/>
</linearGradient>
<linearGradient id="paint31_linear_0_105" x1="12.2738" y1="-0.00669075" x2="3.24647" y2="9.24766" gradientUnits="userSpaceOnUse">
<stop stop-color="#3852AF"/>
<stop offset="1" stop-color="#010204"/>
</linearGradient>
<linearGradient id="paint32_linear_0_105" x1="12.2738" y1="-0.00669075" x2="3.24647" y2="9.24766" gradientUnits="userSpaceOnUse">
<stop stop-color="#3852AF"/>
<stop offset="1" stop-color="#010204"/>
</linearGradient>
<linearGradient id="paint33_linear_0_105" x1="12.2738" y1="-0.00669075" x2="3.24647" y2="9.24766" gradientUnits="userSpaceOnUse">
<stop stop-color="#3852AF"/>
<stop offset="1" stop-color="#010204"/>
</linearGradient>
<linearGradient id="paint34_linear_0_105" x1="12.2738" y1="-0.00669075" x2="3.24647" y2="9.24766" gradientUnits="userSpaceOnUse">
<stop stop-color="#3852AF"/>
<stop offset="1" stop-color="#010204"/>
</linearGradient>
<linearGradient id="paint35_linear_0_105" x1="12.2738" y1="-0.00669075" x2="3.24647" y2="9.24766" gradientUnits="userSpaceOnUse">
<stop stop-color="#3852AF"/>
<stop offset="1" stop-color="#010204"/>
</linearGradient>
<linearGradient id="paint36_linear_0_105" x1="12.2738" y1="-0.00669075" x2="3.24647" y2="9.24766" gradientUnits="userSpaceOnUse">
<stop stop-color="#3852AF"/>
<stop offset="1" stop-color="#010204"/>
</linearGradient>
<linearGradient id="paint37_linear_0_105" x1="12.2738" y1="-0.00669075" x2="3.24647" y2="9.24766" gradientUnits="userSpaceOnUse">
<stop stop-color="#3852AF"/>
<stop offset="1" stop-color="#010204"/>
</linearGradient>
<linearGradient id="paint38_linear_0_105" x1="12.2738" y1="-0.00669075" x2="3.24647" y2="9.24766" gradientUnits="userSpaceOnUse">
<stop stop-color="#3852AF"/>
<stop offset="1" stop-color="#010204"/>
</linearGradient>
<linearGradient id="paint39_linear_0_105" x1="12.2738" y1="-0.00669075" x2="3.24647" y2="9.24766" gradientUnits="userSpaceOnUse">
<stop stop-color="#3852AF"/>
<stop offset="1" stop-color="#010204"/>
</linearGradient>
<linearGradient id="paint40_linear_0_105" x1="12.2738" y1="-0.00669075" x2="3.24647" y2="9.24766" gradientUnits="userSpaceOnUse">
<stop stop-color="#3852AF"/>
<stop offset="1" stop-color="#010204"/>
</linearGradient>
<linearGradient id="paint41_linear_0_105" x1="12.2738" y1="-0.00669075" x2="3.24647" y2="9.24766" gradientUnits="userSpaceOnUse">
<stop stop-color="#3852AF"/>
<stop offset="1" stop-color="#010204"/>
</linearGradient>
</defs>
</svg>
