<svg preserveAspectRatio="none" width="100%" height="100%" overflow="visible" style="display: block;" viewBox="0 0 20.9998 20.002" fill="none" xmlns="http://www.w3.org/2000/svg">
<path id="Union" d="M10.5009 0C12.0245 0.000183885 13.3774 1.04593 14.3173 2.75391H14.3164L17.1835 7.95215L20.2255 13.4756H20.2265C21.1247 15.1081 21.2656 16.7555 20.5165 18.0391C19.7661 19.3248 18.2649 20.0019 16.4101 20.002H10.5009C10.4622 20.0019 10.4238 19.9979 10.3867 19.9922H4.59174C2.73269 19.9922 1.22995 19.3152 0.480413 18.0283C-0.267091 16.7442 -0.122205 15.0972 0.775335 13.4658L3.81733 7.94238L3.8183 7.94141L6.68451 2.75293C7.62449 1.04543 8.97752 6.75394e-05 10.5009 0ZM10.5009 1.5C9.73339 1.50007 8.79357 2.03178 7.99799 3.47754V3.47852L5.1308 8.66699L5.12983 8.66602L2.08881 14.1895C1.34893 15.5346 1.38145 16.5947 1.77631 17.2734C2.17006 17.9495 3.06731 18.4922 4.59174 18.4922H10.5009C10.5404 18.4922 10.5793 18.496 10.6171 18.502H16.4101C17.9287 18.5019 18.8264 17.9602 19.2216 17.2832C19.6179 16.6039 19.6519 15.5429 18.9121 14.1982L15.8701 8.67578V8.67676L13.0029 3.47852V3.47754C12.2074 2.03203 11.2684 1.50019 10.5009 1.5ZM10.6064 13.9141C11.1106 13.9653 11.5039 14.3914 11.5039 14.9092C11.5036 15.4267 11.1105 15.8531 10.6064 15.9043L10.5039 15.9092H10.4951C9.94303 15.9091 9.49529 15.4612 9.49506 14.9092C9.49506 14.357 9.94289 13.9093 10.4951 13.9092H10.5039L10.6064 13.9141ZM10.5009 6.29688C10.9149 6.29701 11.2508 6.63285 11.2509 7.04688V11.96C11.2509 12.3741 10.915 12.7098 10.5009 12.71C10.0867 12.71 9.75092 12.3742 9.75092 11.96V7.04688C9.75104 6.63277 10.0868 6.29688 10.5009 6.29688Z" fill="var(--fill-0, #4546ED)"/>
</svg>
