<svg preserveAspectRatio="none" width="100%" height="100%" overflow="visible" style="display: block;" viewBox="0 0 50.7496 48.2549" fill="none" xmlns="http://www.w3.org/2000/svg">
<path id="Union" d="M25.3764 0C28.7447 0 31.885 2.31435 34.1508 6.43164L41.3178 19.4277V19.4287L48.9243 33.2354V33.2363C51.0775 37.1501 51.3289 40.9257 49.6616 43.7822C47.9925 46.6416 44.5912 48.2549 40.1499 48.2549H25.3764C25.3021 48.2548 25.2293 48.2459 25.1596 48.2305H10.604C6.15163 48.2304 2.7488 46.6176 1.08249 43.7568C-0.581578 40.8996 -0.322861 37.1233 1.82956 33.2109L9.43601 19.4043V19.4023L16.603 6.43066C18.8686 2.31408 22.0087 0.000410949 25.3764 0ZM25.3764 2C23.0166 2.00041 20.428 3.62902 18.355 7.39648L18.354 7.39844L11.187 20.3701L11.186 20.3691L3.58151 34.1758C1.63893 37.7069 1.61714 40.7 2.81101 42.75C4.00292 44.7963 6.59777 46.2304 10.604 46.2305H25.3764C25.451 46.2305 25.5243 46.2394 25.5942 46.2549H40.1499C44.143 46.2549 46.7387 44.8212 47.9341 42.7734C49.0936 40.7867 49.1138 37.9162 47.3481 34.5293L47.1723 34.2002L39.5669 20.3936L32.3999 7.39746L32.3989 7.39648C30.3256 3.62869 27.7365 2 25.3764 2ZM25.4887 35.4004C25.9927 35.4517 26.386 35.878 26.3862 36.3955C26.3862 36.9132 25.9929 37.3393 25.4887 37.3906L25.3862 37.3955H25.3637C24.8115 37.3954 24.3637 36.9477 24.3637 36.3955C24.364 35.8435 24.8117 35.3956 25.3637 35.3955H25.3862L25.4887 35.4004ZM25.3774 15.7422C25.9297 15.7422 26.3774 16.1899 26.3774 16.7422V29.0264C26.377 29.5783 25.9294 30.0263 25.3774 30.0264C24.8254 30.0264 24.3778 29.5783 24.3774 29.0264V16.7422C24.3774 16.1899 24.8251 15.7422 25.3774 15.7422Z" fill="var(--fill-0, #F44336)"/>
</svg>
