<svg preserveAspectRatio="none" width="100%" height="100%" overflow="visible" style="display: block;" viewBox="0 0 21.5 21.5" fill="none" xmlns="http://www.w3.org/2000/svg">
<g id="Vector">
<path d="M0.75 7.75C0.75 2.75 2.75 0.75 7.75 0.75H13.75C18.75 0.75 20.75 2.75 20.75 7.75V13.75C20.75 18.75 18.75 20.75 13.75 20.75H7.75C2.75 20.75 0.75 18.75 0.75 13.75V11.78" fill="#FDE4E2"/>
<path d="M0.75 7.75C0.75 2.75 2.75 0.75 7.75 0.75H13.75C18.75 0.75 20.75 2.75 20.75 7.75V13.75C20.75 18.75 18.75 20.75 13.75 20.75H7.75C2.75 20.75 0.75 18.75 0.75 13.75V11.78" stroke="var(--stroke-0, #F65E53)" stroke-width="1.5" stroke-linecap="round" stroke-linejoin="round"/>
</g>
</svg>
