<svg width="100" height="100" viewBox="0 0 100 100" fill="none" xmlns="http://www.w3.org/2000/svg">
<path d="M18.3337 12.5C16.7866 12.5 15.3028 13.1145 14.2089 14.2085C13.1149 15.3025 12.5003 16.7862 12.5003 18.3333V25C12.5003 26.105 12.0613 27.1648 11.2799 27.9462C10.4985 28.7276 9.43873 29.1666 8.33366 29.1666C7.22859 29.1666 6.16878 28.7276 5.38738 27.9462C4.60598 27.1648 4.16699 26.105 4.16699 25V18.3333C4.16699 14.5761 5.65955 10.9727 8.31631 8.31595C10.9731 5.65918 14.5764 4.16663 18.3337 4.16663H25.0003C26.1054 4.16663 27.1652 4.60561 27.9466 5.38701C28.728 6.16842 29.167 7.22822 29.167 8.33329C29.167 9.43836 28.728 10.4982 27.9466 11.2796C27.1652 12.061 26.1054 12.5 25.0003 12.5H18.3337ZM70.8337 8.33329C70.8337 7.22822 71.2726 6.16842 72.054 5.38701C72.8354 4.60561 73.8953 4.16663 75.0003 4.16663H81.667C85.4242 4.16663 89.0276 5.65918 91.6843 8.31595C94.3411 10.9727 95.8337 14.5761 95.8337 18.3333V25C95.8337 26.105 95.3947 27.1648 94.6133 27.9462C93.8319 28.7276 92.7721 29.1666 91.667 29.1666C90.5619 29.1666 89.5021 28.7276 88.7207 27.9462C87.9393 27.1648 87.5003 26.105 87.5003 25V18.3333C87.5003 16.7862 86.8857 15.3025 85.7918 14.2085C84.6978 13.1145 83.2141 12.5 81.667 12.5H75.0003C73.8953 12.5 72.8354 12.061 72.054 11.2796C71.2726 10.4982 70.8337 9.43836 70.8337 8.33329ZM8.33366 70.8333C9.43873 70.8333 10.4985 71.2723 11.2799 72.0537C12.0613 72.8351 12.5003 73.8949 12.5003 75V81.6666C12.5003 83.2137 13.1149 84.6974 14.2089 85.7914C15.3028 86.8854 16.7866 87.5 18.3337 87.5H25.0003C26.1054 87.5 27.1652 87.9389 27.9466 88.7203C28.728 89.5017 29.167 90.5616 29.167 91.6666C29.167 92.7717 28.728 93.8315 27.9466 94.6129C27.1652 95.3943 26.1054 95.8333 25.0003 95.8333H18.3337C14.5764 95.8333 10.9731 94.3407 8.31631 91.684C5.65955 89.0272 4.16699 85.4239 4.16699 81.6666V75C4.16699 73.8949 4.60598 72.8351 5.38738 72.0537C6.16878 71.2723 7.22859 70.8333 8.33366 70.8333ZM91.667 70.8333C92.7721 70.8333 93.8319 71.2723 94.6133 72.0537C95.3947 72.8351 95.8337 73.8949 95.8337 75V81.6666C95.8337 85.4239 94.3411 89.0272 91.6843 91.684C89.0276 94.3407 85.4242 95.8333 81.667 95.8333H75.0003C73.8953 95.8333 72.8354 95.3943 72.054 94.6129C71.2726 93.8315 70.8337 92.7717 70.8337 91.6666C70.8337 90.5616 71.2726 89.5017 72.054 88.7203C72.8354 87.9389 73.8953 87.5 75.0003 87.5H81.667C83.2141 87.5 84.6978 86.8854 85.7918 85.7914C86.8857 84.6974 87.5003 83.2137 87.5003 81.6666V75C87.5003 73.8949 87.9393 72.8351 88.7207 72.0537C89.5021 71.2723 90.5619 70.8333 91.667 70.8333ZM75.0003 33.3333C76.1054 33.3333 77.1652 33.7723 77.9466 34.5537C78.728 35.3351 79.167 36.3949 79.167 37.5V62.5C79.167 63.605 78.728 64.6648 77.9466 65.4462C77.1652 66.2276 76.1054 66.6666 75.0003 66.6666C73.8953 66.6666 72.8354 66.2276 72.054 65.4462C71.2726 64.6648 70.8337 63.605 70.8337 62.5V37.5C70.8337 36.3949 71.2726 35.3351 72.054 34.5537C72.8354 33.7723 73.8953 33.3333 75.0003 33.3333ZM62.5003 37.5C62.5003 36.3949 62.0613 35.3351 61.2799 34.5537C60.4985 33.7723 59.4387 33.3333 58.3337 33.3333C57.2286 33.3333 56.1688 33.7723 55.3874 34.5537C54.606 35.3351 54.167 36.3949 54.167 37.5V62.5C54.167 63.605 54.606 64.6648 55.3874 65.4462C56.1688 66.2276 57.2286 66.6666 58.3337 66.6666C59.4387 66.6666 60.4985 66.2276 61.2799 65.4462C62.0613 64.6648 62.5003 63.605 62.5003 62.5V37.5ZM41.667 33.3333C42.7721 33.3333 43.8319 33.7723 44.6133 34.5537C45.3947 35.3351 45.8337 36.3949 45.8337 37.5V62.5C45.8337 63.605 45.3947 64.6648 44.6133 65.4462C43.8319 66.2276 42.7721 66.6666 41.667 66.6666C40.5619 66.6666 39.5021 66.2276 38.7207 65.4462C37.9393 64.6648 37.5003 63.605 37.5003 62.5V37.5C37.5003 36.3949 37.9393 35.3351 38.7207 34.5537C39.5021 33.7723 40.5619 33.3333 41.667 33.3333ZM29.167 37.5C29.167 36.3949 28.728 35.3351 27.9466 34.5537C27.1652 33.7723 26.1054 33.3333 25.0003 33.3333C23.8953 33.3333 22.8354 33.7723 22.054 34.5537C21.2726 35.3351 20.8337 36.3949 20.8337 37.5V62.5C20.8337 63.605 21.2726 64.6648 22.054 65.4462C22.8354 66.2276 23.8953 66.6666 25.0003 66.6666C26.1054 66.6666 27.1652 66.2276 27.9466 65.4462C28.728 64.6648 29.167 63.605 29.167 62.5V37.5Z" fill="black"/>
</svg>
