<svg preserveAspectRatio="none" width="100%" height="100%" overflow="visible" style="display: block;" viewBox="0 0 24 24" fill="none" xmlns="http://www.w3.org/2000/svg">
<g id="book">
<path id="Vector" d="M22 16.74V4.67C22 3.47 21.02 2.58 19.83 2.68H19.77C17.67 2.86 14.48 3.93 12.7 5.05L12.53 5.16C12.24 5.34 11.76 5.34 11.47 5.16L11.22 5.01C9.44 3.9 6.26 2.84 4.16 2.67C2.97 2.57 2 3.47 2 4.66V16.74C2 17.7 2.78 18.6 3.74 18.72L4.03 18.76C6.2 19.05 9.55 20.15 11.47 21.2L11.51 21.22C11.78 21.37 12.21 21.37 12.47 21.22C14.39 20.16 17.75 19.05 19.93 18.76L20.26 18.72C21.22 18.6 22 17.7 22 16.74Z" fill="var(--fill-0, #B9CED5)" stroke="var(--stroke-1, #6492A1)" stroke-width="1.5" stroke-linecap="round" stroke-linejoin="round"/>
<g id="Line">
<path d="M12 5.49V20.49Z" fill="#B9CED5"/>
<path d="M12 5.49V20.49" stroke="var(--stroke-0, #6492A1)" stroke-width="1.5" stroke-linecap="round" stroke-linejoin="round"/>
</g>
<g id="Line_2">
<path d="M7.75 8.49H5.5Z" fill="#B9CED5"/>
<path d="M7.75 8.49H5.5" stroke="var(--stroke-0, #6492A1)" stroke-width="1.5" stroke-linecap="round" stroke-linejoin="round"/>
</g>
<g id="Line_3">
<path d="M8.5 11.49H5.5Z" fill="#B9CED5"/>
<path d="M8.5 11.49H5.5" stroke="var(--stroke-0, #6492A1)" stroke-width="1.5" stroke-linecap="round" stroke-linejoin="round"/>
</g>
<path id="Vector_2" opacity="0" d="M0.5 23.5L0.5 0.5L23.5 0.5L23.5 23.5L0.5 23.5Z" fill="var(--fill-0, #B9CED5)" stroke="var(--stroke-0, #6492A1)"/>
</g>
</svg>
