<svg preserveAspectRatio="none" width="100%" height="100%" overflow="visible" style="display: block;" viewBox="0 0 22 22" fill="none" xmlns="http://www.w3.org/2000/svg">
<g id="Union">
<path d="M13.9295 12.7296C13.9295 12.1218 14.4725 11.629 15.1423 11.629H15.1524C15.8222 11.629 16.3652 12.1218 16.3652 12.7296C16.3652 13.3375 15.8222 13.8302 15.1524 13.8302H15.1423C14.4725 13.8302 13.9295 13.3375 13.9295 12.7296Z" fill="var(--fill-0, #1E1F33)"/>
<path d="M15.1423 14.6814C14.4725 14.6814 13.9295 15.1741 13.9295 15.782C13.9295 16.3899 14.4725 16.8826 15.1423 16.8826H15.1524C15.8222 16.8826 16.3652 16.3899 16.3652 15.782C16.3652 15.1741 15.8222 14.6814 15.1524 14.6814H15.1423Z" fill="var(--fill-0, #1E1F33)"/>
<path d="M9.78212 12.7296C9.78212 12.1218 10.3251 11.629 10.9949 11.629H11.005C11.6748 11.629 12.2178 12.1218 12.2178 12.7296C12.2178 13.3375 11.6748 13.8302 11.005 13.8302H10.9949C10.3251 13.8302 9.78212 13.3375 9.78212 12.7296Z" fill="var(--fill-0, #1E1F33)"/>
<path d="M10.9949 14.6814C10.3251 14.6814 9.78212 15.1741 9.78212 15.782C9.78212 16.3899 10.3251 16.8826 10.9949 16.8826H11.005C11.6748 16.8826 12.2178 16.3899 12.2178 15.782C12.2178 15.1741 11.6748 14.6814 11.005 14.6814H10.9949Z" fill="var(--fill-0, #1E1F33)"/>
<path d="M5.63255 12.7296C5.63255 12.1218 6.17554 11.629 6.84535 11.629H6.85542C7.52524 11.629 8.06823 12.1218 8.06823 12.7296C8.06823 13.3375 7.52524 13.8302 6.85542 13.8302H6.84535C6.17554 13.8302 5.63255 13.3375 5.63255 12.7296Z" fill="var(--fill-0, #1E1F33)"/>
<path d="M6.84535 14.6814C6.17554 14.6814 5.63255 15.1741 5.63255 15.782C5.63255 16.3899 6.17554 16.8826 6.84535 16.8826H6.85542C7.52524 16.8826 8.06823 16.3899 8.06823 15.782C8.06823 15.1741 7.52524 14.6814 6.85542 14.6814H6.84535Z" fill="var(--fill-0, #1E1F33)"/>
<path fill-rule="evenodd" clip-rule="evenodd" d="M7.42499 0.825472C7.42499 0.369576 7.01774 0 6.51538 0C6.01302 0 5.60577 0.369576 5.60577 0.825472V1.56216C3.90037 1.70159 2.5392 2.24608 1.57442 3.18897C0.45516 4.28284 0 5.7862 0 7.43892V16.0873C0 17.74 0.45516 19.2434 1.57442 20.3372C2.70502 21.4422 4.37999 22 6.51538 22H15.4846C17.62 22 19.295 21.4422 20.4256 20.3372C21.5448 19.2434 22 17.74 22 16.0873V7.43892C22 5.7862 21.5448 4.28284 20.4256 3.18897C19.4608 2.24608 18.0996 1.70159 16.3942 1.56216V0.825472C16.3942 0.369576 15.987 0 15.4846 0C14.9823 0 14.575 0.369576 14.575 0.825472V1.52619H7.42499V0.825472ZM5.60577 3.22106V3.87783C5.60577 4.33372 6.01302 4.7033 6.51538 4.7033C7.01774 4.7033 7.42499 4.33372 7.42499 3.87783V3.17713H14.575V3.87783C14.575 4.33372 14.9823 4.7033 15.4846 4.7033C15.987 4.7033 16.3942 4.33372 16.3942 3.87783V3.22106C17.6682 3.35102 18.5266 3.75932 19.0925 4.31235C19.7569 4.96167 20.1379 5.92716 20.1774 7.21371H1.82263C1.86211 5.92716 2.24314 4.96167 2.90753 4.31235C3.4734 3.75932 4.33184 3.35101 5.60577 3.22106ZM1.81921 8.86465V16.0873C1.81921 17.4869 2.20492 18.5272 2.90753 19.2138C3.59881 19.8894 4.72673 20.3491 6.51538 20.3491H15.4846C17.2733 20.3491 18.4012 19.8894 19.0925 19.2138C19.7951 18.5272 20.1808 17.4869 20.1808 16.0873V8.86465H1.81921Z" fill="var(--fill-0, #1E1F33)"/>
</g>
</svg>
