<svg preserveAspectRatio="none" width="100%" height="100%" overflow="visible" style="display: block;" viewBox="0 0 18.1397 19.9886" fill="none" xmlns="http://www.w3.org/2000/svg">
<g id="Union">
<path d="M11.4853 11.5658C11.4853 11.0135 11.9331 10.5658 12.4853 10.5658H12.4936C13.0459 10.5658 13.4936 11.0135 13.4936 11.5658C13.4936 12.1181 13.0459 12.5658 12.4936 12.5658H12.4853C11.9331 12.5658 11.4853 12.1181 11.4853 11.5658Z" fill="var(--fill-0, #242424)"/>
<path d="M12.4853 13.3391C11.9331 13.3391 11.4853 13.7868 11.4853 14.3391C11.4853 14.8914 11.9331 15.3391 12.4853 15.3391H12.4936C13.0459 15.3391 13.4936 14.8914 13.4936 14.3391C13.4936 13.7868 13.0459 13.3391 12.4936 13.3391H12.4853Z" fill="var(--fill-0, #242424)"/>
<path d="M8.06567 11.5658C8.06567 11.0135 8.51339 10.5658 9.06567 10.5658H9.07398C9.62626 10.5658 10.074 11.0135 10.074 11.5658C10.074 12.1181 9.62626 12.5658 9.07398 12.5658H9.06567C8.51339 12.5658 8.06567 12.1181 8.06567 11.5658Z" fill="var(--fill-0, #242424)"/>
<path d="M9.06567 13.3391C8.51339 13.3391 8.06567 13.7868 8.06567 14.3391C8.06567 14.8914 8.51339 15.3391 9.06567 15.3391H9.07398C9.62626 15.3391 10.074 14.8914 10.074 14.3391C10.074 13.7868 9.62626 13.3391 9.07398 13.3391H9.06567Z" fill="var(--fill-0, #242424)"/>
<path d="M4.64421 11.5658C4.64421 11.0135 5.09193 10.5658 5.64421 10.5658H5.65252C6.2048 10.5658 6.65252 11.0135 6.65252 11.5658C6.65252 12.1181 6.2048 12.5658 5.65252 12.5658H5.64421C5.09193 12.5658 4.64421 12.1181 4.64421 11.5658Z" fill="var(--fill-0, #242424)"/>
<path d="M5.64421 13.3391C5.09193 13.3391 4.64421 13.7868 4.64421 14.3391C4.64421 14.8914 5.09193 15.3391 5.64421 15.3391H5.65252C6.2048 15.3391 6.65252 14.8914 6.65252 14.3391C6.65252 13.7868 6.2048 13.3391 5.65252 13.3391H5.64421Z" fill="var(--fill-0, #242424)"/>
<path fill-rule="evenodd" clip-rule="evenodd" d="M6.12214 0.75C6.12214 0.335786 5.78636 0 5.37214 0C4.95793 0 4.62214 0.335786 4.62214 0.75V1.41933C3.21598 1.54602 2.09365 2.04073 1.29816 2.8974C0.375294 3.89126 0 5.25718 0 6.75879V14.6164C0 16.118 0.375294 17.484 1.29816 18.4778C2.23038 19.4817 3.61144 19.9886 5.37214 19.9886H12.7676C14.5283 19.9886 15.9093 19.4817 16.8415 18.4778C17.7644 17.484 18.1397 16.118 18.1397 14.6164V6.75879C18.1397 5.25718 17.7644 3.89126 16.8415 2.8974C16.0461 2.04073 14.9237 1.54602 13.5176 1.41933V0.75C13.5176 0.335786 13.1818 0 12.7676 0C12.3534 0 12.0176 0.335786 12.0176 0.75V1.38665H6.12214V0.75ZM4.62214 2.92657V3.52328C4.62214 3.9375 4.95793 4.27328 5.37214 4.27328C5.78636 4.27328 6.12214 3.9375 6.12214 3.52328V2.88665H12.0176V3.52328C12.0176 3.9375 12.3534 4.27328 12.7676 4.27328C13.1818 4.27328 13.5176 3.9375 13.5176 3.52328V2.92657C14.568 3.04464 15.2758 3.41562 15.7424 3.91808C16.2902 4.50803 16.6043 5.38525 16.6369 6.55417H1.50281C1.53537 5.38525 1.84954 4.50803 2.39735 3.91808C2.86393 3.41561 3.57174 3.04464 4.62214 2.92657ZM1.5 8.05417V14.6164C1.5 15.8881 1.81803 16.8333 2.39735 17.4571C2.96734 18.071 3.89734 18.4886 5.37214 18.4886H12.7676C14.2424 18.4886 15.1724 18.071 15.7424 17.4571C16.3217 16.8333 16.6397 15.8881 16.6397 14.6164V8.05417H1.5Z" fill="var(--fill-0, #242424)"/>
</g>
</svg>
