<svg preserveAspectRatio="none" width="100%" height="100%" overflow="visible" style="display: block;" viewBox="0 0 24 24" fill="none" xmlns="http://www.w3.org/2000/svg">
<g id="card-tick">
<g id="Vector">
<path d="M22 11.03V16.11C22 19.62 21.11 20.5 17.56 20.5H6.44C2.89 20.5 2 19.62 2 16.11V7.89C2 4.38 2.89 3.5 6.44 3.5H13.5" fill="var(--fill-0, #CCEBC7)"/>
<path d="M22 11.03V16.11C22 19.62 21.11 20.5 17.56 20.5H6.44C2.89 20.5 2 19.62 2 16.11V7.89C2 4.38 2.89 3.5 6.44 3.5H13.5" stroke="var(--stroke-0, #60C257)" stroke-width="1.5" stroke-linecap="round" stroke-linejoin="round"/>
</g>
<path id="Vector_2" d="M16.5 6L18 7.5L22 3.5" stroke="var(--stroke-0, #60C257)" stroke-width="1.5" stroke-linecap="round" stroke-linejoin="round"/>
<path id="Line" d="M2 8.5H13.5" stroke="var(--stroke-0, #60C257)" stroke-width="1.5" stroke-miterlimit="10" stroke-linecap="round" stroke-linejoin="round"/>
<path id="Line_2" d="M6 16.5H8" stroke="var(--stroke-0, #60C257)" stroke-width="1.5" stroke-miterlimit="10" stroke-linecap="round" stroke-linejoin="round"/>
<path id="Line_3" d="M10.5 16.5H14.5" stroke="var(--stroke-0, #60C257)" stroke-width="1.5" stroke-miterlimit="10" stroke-linecap="round" stroke-linejoin="round"/>
<path id="Vector_3" opacity="0" d="M23.5 0.5V23.5H0.5V0.5H23.5Z" stroke="var(--stroke-0, #60C257)"/>
</g>
</svg>
