<svg preserveAspectRatio="none" width="100%" height="100%" overflow="visible" style="display: block;" viewBox="0 0 16 16" fill="none" xmlns="http://www.w3.org/2000/svg">
<path id="Subtract" d="M12 0C14.2091 0 16 1.79086 16 4V12C16 14.2091 14.2091 16 12 16H4C1.79086 16 0 14.2091 0 12V4C0 1.79086 1.79086 0 4 0H12ZM13.4766 3.8623C13.2237 3.60198 12.8144 3.60197 12.5615 3.8623L5.89551 10.7236L3.43848 8.19531C3.18561 7.9352 2.7763 7.93521 2.52344 8.19531C2.27053 8.45566 2.27053 8.87735 2.52344 9.1377L5.4375 12.1377C5.69041 12.398 6.1006 12.398 6.35352 12.1377L13.4766 4.80469C13.7295 4.54434 13.7295 4.12265 13.4766 3.8623Z" fill="var(--fill-0, #5C5DEF)"/>
</svg>
