<svg preserveAspectRatio="none" width="100%" height="100%" overflow="visible" style="display: block;" viewBox="0 0 18.476 21.5" fill="none" xmlns="http://www.w3.org/2000/svg">
<g id="Group">
<path id="Vector" d="M17.726 17.75H6.72597M17.726 17.75V20.75H6.72597V17.75M17.726 17.75V9.284C17.726 7.85 16.7545 7.351 16.232 7.257C15.8836 7.19433 13.7165 6.861 9.73047 6.257V2.252C9.73047 2.05471 9.6916 1.85936 9.61609 1.67709C9.54057 1.49483 9.42989 1.32923 9.29037 1.18975C9.15084 1.05027 8.9852 0.939643 8.80291 0.86419C8.62062 0.788736 8.42525 0.749934 8.22797 0.75H8.22647C8.0294 0.750131 7.83429 0.789093 7.65229 0.864659C7.47028 0.940225 7.30495 1.05091 7.16575 1.1904C7.02654 1.32989 6.91618 1.49544 6.84098 1.67759C6.76578 1.85975 6.7272 2.05493 6.72747 2.252C6.7348 9.013 6.7343 12.3925 6.72597 12.3905C5.34997 12.3905 4.30847 9.748 2.50247 9.748C0.696468 9.748 0.393468 10.708 1.11497 11.558C1.59597 12.1247 3.4663 14.1887 6.72597 17.75" stroke="var(--stroke-0, white)" stroke-width="1.5" stroke-linejoin="round"/>
</g>
</svg>
