<svg preserveAspectRatio="none" width="100%" height="100%" overflow="visible" style="display: block;" viewBox="0 0 19.3026 19.3026" fill="none" xmlns="http://www.w3.org/2000/svg">
<path id="Union" d="M7.61816 0C8.61831 6.22865e-05 9.60918 0.197359 10.5332 0.580078C11.4572 0.962878 12.2967 1.52423 13.0039 2.23145C13.7111 2.93869 14.2725 3.77812 14.6553 4.70215C15.0381 5.62636 15.2353 6.6178 15.2354 7.61816C15.2353 8.61837 15.038 9.60913 14.6553 10.5332C14.3364 11.3029 13.8914 12.0119 13.3438 12.6367L19.1562 18.4492C19.3514 18.6445 19.3515 18.961 19.1562 19.1562C18.961 19.3514 18.6445 19.3514 18.4492 19.1562L12.6367 13.3438C12.0119 13.8914 11.3029 14.3364 10.5332 14.6553C9.60917 15.038 8.61832 15.2353 7.61816 15.2354C6.61786 15.2353 5.62631 15.0381 4.70215 14.6553C3.77815 14.2725 2.93867 13.7111 2.23145 13.0039C1.52423 12.2967 0.962878 11.4572 0.580078 10.5332C0.197337 9.60915 6.22745e-05 8.61834 0 7.61816C2.93101e-06 6.61782 0.197269 5.62635 0.580078 4.70215C0.962884 3.77812 1.52422 2.93869 2.23145 2.23145C2.93867 1.52422 3.77814 0.962898 4.70215 0.580078C5.62631 0.197277 6.61786 2.44444e-05 7.61816 0ZM7.61816 1C6.74918 1.00002 5.8878 1.17136 5.08496 1.50391C4.28223 1.83647 3.55288 2.32407 2.93848 2.93848C2.32407 3.5529 1.83646 4.28221 1.50391 5.08496C1.17135 5.88784 1 6.74914 1 7.61816C1.00006 8.48702 1.17142 9.34767 1.50391 10.1504C1.83645 10.9531 2.32409 11.6825 2.93848 12.2969C3.55287 12.9113 4.28224 13.3989 5.08496 13.7314C5.8878 14.064 6.74918 14.2353 7.61816 14.2354C8.487 14.2353 9.34768 14.0639 10.1504 13.7314C10.9531 13.3989 11.6824 12.9113 12.2969 12.2969C12.9113 11.6824 13.3989 10.9532 13.7314 10.1504C14.064 9.34764 14.2353 8.48705 14.2354 7.61816C14.2353 6.74912 14.064 5.88785 13.7314 5.08496C13.3989 4.28221 12.9113 3.55289 12.2969 2.93848C11.6825 2.32409 10.9531 1.83645 10.1504 1.50391C9.34769 1.17144 8.48699 1.00006 7.61816 1ZM10.708 2.77148C10.7862 2.78235 10.8618 2.80874 10.9297 2.84961C11.0198 2.9039 11.0937 2.98088 11.1455 3.07129H11.1445L12.6748 5.72949V5.73047C12.7371 5.83915 12.7666 5.96419 12.7607 6.08887C12.7549 6.2136 12.7134 6.33525 12.6406 6.4375V6.43848L8.13184 12.7363C8.07737 12.8127 8.00545 12.8765 7.92188 12.9209C7.83818 12.9653 7.74464 12.9892 7.64941 12.9893C7.55413 12.9892 7.46068 12.9654 7.37695 12.9209C7.31431 12.8876 7.25883 12.8432 7.21191 12.791L7.16797 12.7363L2.65918 6.43848V6.4375C2.58628 6.3352 2.54494 6.2137 2.53906 6.08887C2.53324 5.96412 2.56264 5.83919 2.625 5.73047V5.72949L4.1543 3.07129L4.19727 3.00684C4.24412 2.9444 4.3024 2.89038 4.37012 2.84961C4.46046 2.79527 4.56384 2.76579 4.66992 2.76562H10.6289L10.708 2.77148ZM7.27637 12.0293L5.38574 6.25781H3.14453L7.27637 12.0293ZM8.02344 12.0273L12.1553 6.25781H9.91406L8.02344 12.0273ZM7.64941 11.5615L9.38867 6.25781H5.91113L7.64941 11.5615ZM3.18652 5.75781H5.19824L4.37402 3.69043L3.18652 5.75781ZM6.04492 5.75781H9.25488L7.64941 3.45215L6.04492 5.75781ZM10.1016 5.75781H12.1133L10.9248 3.69043L10.1016 5.75781ZM4.75684 3.29688L5.62598 5.48242L7.1709 3.26562H4.74023C4.746 3.27569 4.7524 3.28581 4.75684 3.29688ZM9.67285 5.48242L10.543 3.29688C10.5474 3.28582 10.5538 3.27568 10.5596 3.26562H8.12793L9.67285 5.48242Z" fill="var(--fill-0, #111122)"/>
</svg>
