<svg preserveAspectRatio="none" width="100%" height="100%" overflow="visible" style="display: block;" viewBox="0 0 17 20" fill="none" xmlns="http://www.w3.org/2000/svg">
<path id="Vector" fill-rule="evenodd" clip-rule="evenodd" d="M7.76369 11.7668C7.62481 11.6252 7.43269 11.5375 7.22036 11.5375C7.00803 11.5375 6.81634 11.6252 6.67747 11.7672L6.67682 11.7666L6.67617 11.7672C6.53794 11.9086 6.45253 12.1048 6.45253 12.3224C6.45253 12.5333 6.53294 12.7244 6.66378 12.8644L6.67725 12.8773C6.81613 13.0193 7.00803 13.107 7.22014 13.107C7.43226 13.107 7.62416 13.0193 7.76303 12.8773C7.90191 12.7353 7.98775 12.539 7.98775 12.3221C7.98775 12.1052 7.90212 11.9084 7.76347 11.7666L7.76369 11.7668ZM7.22036 10.9315C7.59525 10.9315 7.93494 11.0872 8.18118 11.3388L8.18226 11.3399C8.4285 11.5917 8.58063 11.939 8.58063 12.3224C8.58063 12.7057 8.42828 13.0541 8.18226 13.3059C7.93624 13.5577 7.59591 13.7135 7.22036 13.7135C6.84481 13.7135 6.50469 13.5577 6.25846 13.3059L6.24151 13.287C6.00527 13.0364 5.85987 12.6961 5.85987 12.3224C5.85987 11.9395 6.01244 11.5917 6.25889 11.3395L6.25824 11.3388C6.50447 11.087 6.8446 10.9312 7.22014 10.9312L7.22036 10.9315ZM7.57613 9.64522V10.0121C7.57613 10.1552 7.67306 10.275 7.80346 10.307C7.87387 10.3281 7.94168 10.3528 8.00644 10.3801C8.07751 10.4101 8.14684 10.4446 8.21443 10.4828C8.33244 10.549 8.47544 10.5243 8.56629 10.4319L8.82013 10.1723L9.32325 10.6868L9.0694 10.9463C8.96965 11.0483 8.95596 11.2048 9.02811 11.3219C9.06202 11.3859 9.09288 11.4517 9.12004 11.5188C9.15112 11.5952 9.17677 11.6688 9.19633 11.7388C9.23327 11.8712 9.3515 11.9577 9.47994 11.9577V11.959H9.83875V12.6864H9.47994C9.33998 12.6864 9.22284 12.7855 9.19154 12.9188C9.1709 12.9908 9.14677 13.0601 9.12004 13.1264C9.08831 13.2048 9.05506 13.2759 9.02094 13.339C8.95596 13.4593 8.98008 13.6053 9.07049 13.6977L9.0694 13.6988L9.32325 13.9584L8.82013 14.4728L8.56629 14.2133C8.46653 14.1113 8.31353 14.0973 8.199 14.171C8.13641 14.2057 8.07208 14.2373 8.00644 14.265C7.93168 14.2968 7.85974 14.3228 7.79129 14.343C7.66176 14.3808 7.57722 14.5017 7.57722 14.6331H7.57591V14.9999H6.86459V14.6331C6.86459 14.4899 6.76766 14.3702 6.63726 14.3384C6.56685 14.317 6.49882 14.2926 6.43384 14.265C6.36299 14.235 6.29345 14.2006 6.22607 14.1626C6.10806 14.0964 5.96506 14.121 5.87422 14.2135L5.62038 14.4733L5.11726 13.9588L5.3711 13.6993C5.47085 13.5973 5.48454 13.4408 5.41239 13.3237C5.37849 13.2597 5.34763 13.1939 5.32046 13.127C5.28938 13.0506 5.26395 12.977 5.24418 12.907C5.20723 12.7746 5.089 12.6881 4.96056 12.6881V12.6868H4.60175V11.9595H4.96056C5.10052 11.9595 5.21766 11.8604 5.24896 11.727C5.2696 11.655 5.29373 11.5857 5.32046 11.5195C5.35002 11.4468 5.38349 11.3759 5.42087 11.3068C5.48563 11.1861 5.46151 11.0399 5.3711 10.947L5.11726 10.6875L5.62038 10.173L5.87422 10.4326C5.97397 10.5346 6.12697 10.5486 6.24151 10.4748C6.3041 10.4401 6.36821 10.4088 6.43384 10.381C6.5086 10.3492 6.58054 10.323 6.64922 10.303C6.77875 10.2652 6.86329 10.1443 6.86329 10.013H6.86459V9.64611H7.57591L7.57613 9.64522ZM6.56837 9.03899H7.87257C8.03622 9.03899 8.16901 9.17477 8.16901 9.3421V9.795L8.23355 9.82144L8.29767 9.84966L8.61084 9.52944C8.72646 9.41122 8.91423 9.41122 9.02985 9.52944L9.95198 10.4723C10.0676 10.5906 10.0676 10.7826 9.95198 10.9008L9.63881 11.221L9.66641 11.2866L9.69206 11.3526H10.1352C10.2988 11.3526 10.4316 11.4884 10.4316 11.6557V12.9893C10.4316 13.1566 10.2988 13.2924 10.1352 13.2924H9.69227L9.66641 13.3584L9.63881 13.4239L9.95198 13.7442C10.0676 13.8624 10.0676 14.0544 9.95198 14.1726L9.02985 15.1155C8.91423 15.2337 8.72646 15.2337 8.61084 15.1155L8.29767 14.7953L8.23355 14.8235L8.16879 14.8497V15.3026C8.16879 15.47 8.036 15.6057 7.87235 15.6057H6.56815C6.4045 15.6057 6.27171 15.47 6.27171 15.3026V14.8497L6.20695 14.8233L6.14305 14.7953L5.82988 15.1155C5.71426 15.2337 5.52649 15.2337 5.41087 15.1155L4.48874 14.1726C4.37312 14.0544 4.37312 13.8624 4.48874 13.7442L4.80191 13.4239L4.77431 13.3584L4.74866 13.2921H4.30553C4.14188 13.2921 4.00909 13.1564 4.00909 12.989V11.6555C4.00909 11.4881 4.14188 11.3523 4.30553 11.3523H4.74845L4.77431 11.2863L4.80191 11.2208L4.48874 10.9006C4.37312 10.7823 4.37312 10.5903 4.48874 10.4721L5.41087 9.52922C5.52649 9.41099 5.71426 9.41099 5.82988 9.52922L6.14305 9.84944L6.20695 9.82144L6.27171 9.79522V9.3421C6.27171 9.17477 6.40472 9.03899 6.56837 9.03899ZM16.4073 8.77143V6.46474H9.81311V8.77143H16.4073ZM13.4912 3.04759H14.8111L12.8425 1.03468V2.38425C12.8425 2.5667 12.9153 2.7327 13.0326 2.85292C13.1502 2.97292 13.3126 3.04759 13.4912 3.04759ZM15.2301 3.6536V5.85873H9.73378C9.59317 5.85873 9.46495 5.91784 9.37193 6.01273H9.37084C9.27804 6.10762 9.22023 6.23918 9.22023 6.38385V8.85254C9.22023 8.99721 9.27804 9.12855 9.37084 9.22366H9.37193C9.46495 9.31855 9.59295 9.37766 9.73378 9.37766H15.2301V15.9851C15.2301 16.1671 15.157 16.3328 15.0392 16.4533V16.4544C14.9223 16.574 14.7602 16.6484 14.5813 16.6484H3.92976C3.75177 16.6484 3.58942 16.5737 3.47185 16.4533H3.47076C3.35384 16.3337 3.28103 16.168 3.28103 15.9851V1.26957C3.28103 1.08668 3.35362 0.920899 3.47076 0.801342H3.47185C3.58942 0.681119 3.75177 0.606229 3.92976 0.606229H12.2496V2.38425C12.2496 2.73292 12.3891 3.04981 12.6141 3.27981L12.6151 3.28093C12.8401 3.51071 13.15 3.6536 13.491 3.6536H15.2301ZM2.68837 1.97913V15.9848C2.68837 16.3331 2.82812 16.6504 3.05349 16.8811L3.05284 16.8817C3.27777 17.1117 3.58812 17.2544 3.92976 17.2544H13.8859V17.358C13.8859 17.5404 13.8131 17.7064 13.6957 17.8269L13.6951 17.8262C13.5775 17.9464 13.4151 18.0213 13.2371 18.0213H2.58558C2.40758 18.0213 2.24524 17.9466 2.12766 17.8262H2.12658C2.00965 17.7066 1.93685 17.5409 1.93685 17.358V2.6427C1.93685 2.45981 2.00943 2.29403 2.12658 2.17447H2.12766C2.24524 2.05425 2.40758 1.97936 2.58558 1.97936H2.68816L2.68837 1.97913ZM1.34419 3.35204V17.3577C1.34419 17.706 1.48393 18.0233 1.7093 18.254L1.70865 18.2546C1.93359 18.4846 2.24393 18.6273 2.58558 18.6273H12.5417V18.7309C12.5417 18.9133 12.4689 19.0793 12.3515 19.1998C12.2339 19.3198 12.0716 19.3942 11.8932 19.3942H1.24139C1.0634 19.3942 0.901268 19.3195 0.783475 19.1991C0.6659 19.0789 0.592659 18.9131 0.592659 18.7309V4.0156C0.592659 3.8336 0.665682 3.66782 0.783475 3.54737V3.54626C0.900399 3.4267 1.06253 3.35226 1.24139 3.35226H1.34397L1.34419 3.35204ZM13.1346 18.6271V18.7307C13.1346 19.0793 12.995 19.3962 12.7701 19.6262L12.769 19.6273C12.5441 19.8571 12.2339 20 11.8932 20H1.24139C0.899747 20 0.589182 19.8573 0.364463 19.6273C0.139743 19.3973 0 19.08 0 18.7307V4.0156C0 3.66626 0.139526 3.34893 0.364463 3.11892L0.365115 3.11959C0.590486 2.88937 0.900833 2.74625 1.24161 2.74625H1.34419V2.6427C1.34419 2.29447 1.48393 1.97713 1.7093 1.74646L1.70865 1.7458C1.93359 1.51579 2.24393 1.37313 2.58558 1.37313H2.68816V1.26957C2.68816 0.921344 2.8279 0.604007 3.05327 0.373337L3.05262 0.372671C3.27756 0.142668 3.5879 0 3.92955 0H12.6684L12.7508 0.0842231L12.7534 0.0866676L12.756 0.0893343L12.7586 0.092001L15.7358 3.13626L15.8227 3.22515V5.85873H16.4864C16.6271 5.85873 16.7553 5.91784 16.8483 6.01273H16.8494C16.9422 6.10762 17 6.23918 17 6.38385V8.85254C17 8.99721 16.9422 9.12855 16.8494 9.22366H16.8483C16.7553 9.31855 16.6273 9.37766 16.4864 9.37766H15.8227V15.9851C15.8227 16.3344 15.6832 16.6517 15.4583 16.8817L15.4576 16.8811C15.2322 17.1113 14.9219 17.2544 14.5813 17.2544H14.4785V17.358C14.4785 17.7066 14.339 18.0235 14.1141 18.2535V18.2546C13.8891 18.4846 13.5788 18.6273 13.2371 18.6273H13.1343L13.1346 18.6271ZM5.1805 5.05206H9.45843C9.62208 5.05206 9.75486 4.91628 9.75486 4.74894C9.75486 4.58161 9.62208 4.44583 9.45843 4.44583H5.1805C5.01685 4.44583 4.88406 4.58161 4.88406 4.74894C4.88406 4.91628 5.01685 5.05206 5.1805 5.05206ZM5.1805 3.45137H8.44349C8.60714 3.45137 8.73993 3.31559 8.73993 3.14826C8.73993 2.98092 8.60714 2.84514 8.44349 2.84514H5.1805C5.01685 2.84514 4.88406 2.98092 4.88406 3.14826C4.88406 3.31559 5.01685 3.45137 5.1805 3.45137Z" fill="var(--fill-0, black)"/>
</svg>
