<svg preserveAspectRatio="none" width="100%" height="100%" overflow="visible" style="display: block;" viewBox="0 0 24 24" fill="none" xmlns="http://www.w3.org/2000/svg">
<g id="Frame 1261153224">
<g id="Vector">
<path d="M12.0002 10.4361C10.9495 10.4361 10.0021 11.0531 9.59937 11.9985C9.19763 12.9449 9.41975 14.0332 10.1624 14.7566C10.906 15.4809 12.0233 15.6973 12.9949 15.3059C13.9654 14.9137 14.599 13.9909 14.599 12.9674C14.597 11.5696 13.4344 10.438 12.0002 10.4361ZM12.0002 14.7454C11.2614 14.7454 10.596 14.3127 10.313 13.6477C10.0311 12.9835 10.1865 12.2188 10.709 11.7099C11.2315 11.2009 12.0166 11.0486 12.6994 11.3242C13.3812 11.5998 13.8264 12.2479 13.8264 12.9675C13.8254 13.9487 13.0084 14.7445 12.0002 14.7454Z" fill="var(--fill-0, black)"/>
<path d="M17.9868 17.1206H16.0572C15.7202 17.1225 15.3861 17.1658 15.0606 17.2495C14.4619 16.9946 13.8158 16.8619 13.162 16.8619H10.8385C10.1847 16.8619 9.53858 16.9945 8.93982 17.2504C8.61437 17.1667 8.28022 17.1225 7.9432 17.1206H6.01366C4.94942 17.1215 3.92961 17.5336 3.17722 18.2664C2.42395 18.9992 2.00096 19.9935 2 21.0292C2 21.2973 2.22308 21.5146 2.49735 21.5146H6.08783C6.09845 21.7855 6.32637 21.9991 6.60352 22H17.3965C17.6736 21.9991 17.9016 21.7855 17.9122 21.5146H21.5027C21.7769 21.5146 22 21.2973 22 21.0292C21.999 19.9935 21.5761 18.9992 20.8228 18.2664C20.0705 17.5336 19.0507 17.1215 17.9863 17.1206H17.9868ZM6.1488 20.762H2.78428C2.92914 19.129 4.33041 17.8751 6.01356 17.8732H7.88226C6.95419 18.5918 6.33614 19.6219 6.1488 20.762ZM6.8644 21.2474C6.9291 20.2644 7.37623 19.3415 8.11406 18.667C8.85285 17.9916 9.8263 17.6163 10.8385 17.6144H13.162C14.1741 17.6163 15.1476 17.9916 15.8865 18.667C16.6243 19.3415 17.0714 20.2643 17.1361 21.2474H6.8644ZM17.8514 20.762C17.6641 19.6219 17.046 18.5918 16.1179 17.8732H17.9866C19.6699 17.875 21.0713 19.129 21.2159 20.762H17.8514Z" fill="var(--fill-0, black)"/>
<path d="M14.7988 13.9496C14.7988 14.8253 15.3406 15.6146 16.1711 15.9504C17.0016 16.2853 17.9577 16.1 18.5941 15.481C19.2296 14.8611 19.4198 13.9298 19.076 13.1208C18.7313 12.3118 17.921 11.7841 17.0219 11.7841C15.7945 11.786 14.8007 12.7539 14.7988 13.9496ZM17.0219 12.5366C17.6091 12.5366 18.1373 12.8809 18.3623 13.4087C18.5874 13.9364 18.4628 14.545 18.0475 14.9485C17.6332 15.353 17.0094 15.4735 16.4666 15.2552C15.9249 15.036 15.5714 14.5215 15.5714 13.9495C15.5724 13.1697 16.2213 12.5376 17.0219 12.5366Z" fill="var(--fill-0, black)"/>
<path d="M6.97849 16.115C7.87758 16.115 8.68881 15.5882 9.0326 14.7782C9.3764 13.9693 9.18712 13.038 8.55071 12.4181C7.91526 11.7991 6.95918 11.6138 6.12768 11.9487C5.29715 12.2835 4.75537 13.0737 4.75537 13.9495C4.75634 15.1451 5.75103 16.114 6.97849 16.115ZM6.97849 12.5367C7.56566 12.5367 8.09391 12.881 8.31893 13.4087C8.54395 13.9364 8.41937 14.5451 8.00411 14.9486C7.58981 15.3531 6.96596 15.4735 6.42322 15.2553C5.88144 15.0361 5.52798 14.5215 5.52798 13.9496C5.52895 13.1697 6.17789 12.5376 6.97849 12.5367Z" fill="var(--fill-0, black)"/>
<path d="M12.0002 7.35146C12.8597 7.35146 13.6342 6.84724 13.9635 6.07401C14.2918 5.30077 14.1103 4.40993 13.5028 3.81824C12.8944 3.22656 11.9809 3.04971 11.187 3.36953C10.3932 3.6903 9.87555 4.44472 9.87555 5.28194C9.87748 6.42394 10.8278 7.34956 12.0002 7.35146ZM12.0002 3.96512C12.5468 3.96512 13.0403 4.28588 13.2489 4.77787C13.4584 5.26985 13.3425 5.83613 12.9562 6.21334C12.57 6.58962 11.9876 6.70249 11.4826 6.49837C10.9775 6.29518 10.6482 5.81451 10.6482 5.28206C10.6491 4.55492 11.2536 3.96608 12.0002 3.96512Z" fill="var(--fill-0, black)"/>
<path d="M8.01759 6.20855L8.60572 6.35248L8.60668 6.35154C8.66076 6.5171 8.72837 6.67702 8.80852 6.83223L8.49078 7.34865H8.48982C8.36138 7.55843 8.39518 7.82653 8.57287 7.99866L9.18901 8.59976C9.36671 8.77285 9.64193 8.80577 9.85633 8.67972L10.3769 8.37588H10.3778C10.5362 8.4549 10.7004 8.52169 10.8684 8.57719L11.0181 9.16136H11.0191C11.0799 9.39841 11.2982 9.56398 11.5493 9.56398H12.4213C12.6724 9.56398 12.8906 9.39748 12.9515 9.16042L13.0983 8.58755C13.2682 8.53393 13.4334 8.46808 13.5918 8.39094L14.1229 8.70138C14.3383 8.82649 14.6125 8.79356 14.7902 8.62048L15.4064 8.01938C15.5841 7.84723 15.6179 7.57914 15.4885 7.36937L15.1765 6.86233C15.2576 6.70806 15.3272 6.54814 15.3832 6.38352L15.982 6.23771C16.2253 6.17939 16.3972 5.96586 16.3963 5.72129V4.87186C16.3972 4.62729 16.2263 4.41376 15.982 4.35543L15.3938 4.21245V4.21151C15.3397 4.04689 15.2721 3.88602 15.192 3.73082L15.5097 3.21439H15.5107C15.6391 3.00556 15.6053 2.73745 15.4276 2.56438L14.8115 1.96328C14.6338 1.7902 14.3586 1.75727 14.1432 1.88332L13.6227 2.18716C13.4653 2.10814 13.3011 2.04135 13.1321 1.98585L12.9814 1.40168C12.9206 1.16463 12.7014 0.999065 12.4512 1H11.5792C11.3281 1 11.1099 1.16556 11.049 1.40262L10.9022 1.9755H10.9013C10.7323 2.02912 10.5671 2.09496 10.4087 2.1721L9.88049 1.86357H9.87952C9.66417 1.73658 9.38796 1.7695 9.21028 1.94353L8.59414 2.54369C8.41644 2.71677 8.38264 2.98486 8.51205 3.19463L8.82398 3.70167V3.70073C8.74286 3.855 8.67332 4.01492 8.61731 4.17954L8.01855 4.32535C7.77422 4.38461 7.60328 4.59814 7.60425 4.84272V5.69214C7.60328 5.93671 7.77422 6.14929 8.01759 6.20855ZM8.37587 5.01389L9.01713 4.85774H9.01809C9.15523 4.82387 9.26242 4.72134 9.29815 4.58776C9.36382 4.34131 9.46619 4.10519 9.6014 3.88694C9.67383 3.76747 9.67383 3.61884 9.60044 3.49937L9.26532 2.95472L9.6323 2.59725L10.1992 2.92837C10.3209 2.99798 10.4715 2.99893 10.5932 2.93026C10.8192 2.80138 11.0626 2.70449 11.3166 2.64241C11.4547 2.60855 11.5628 2.50319 11.5966 2.36868L11.755 1.75253H12.2746L12.4349 2.37715H12.4359C12.4697 2.50979 12.5759 2.6142 12.7121 2.64901C12.9651 2.71392 13.2084 2.81363 13.4325 2.94439C13.5551 3.01588 13.7077 3.01588 13.8304 2.94439L14.3905 2.61703L14.7575 2.97449L14.4176 3.52762H14.4166C14.3442 3.64521 14.3432 3.7929 14.4147 3.91143C14.547 4.13155 14.6464 4.3686 14.7102 4.61601C14.7449 4.75053 14.8531 4.85588 14.9912 4.88881L15.6237 5.04308V5.54917L14.9825 5.70533V5.70627C14.8454 5.73919 14.7382 5.84267 14.7024 5.97531C14.6358 6.22176 14.5344 6.45882 14.3992 6.67707C14.3267 6.79653 14.3267 6.94517 14.4001 7.06369L14.7362 7.60929L14.3692 7.96675L13.8023 7.63563H13.8014C13.6807 7.56508 13.529 7.56414 13.4074 7.63281C13.1814 7.76168 12.938 7.85857 12.684 7.92159C12.5459 7.95546 12.4378 8.06081 12.404 8.19533L12.2456 8.81148H11.726L11.5657 8.18685H11.5647C11.5309 8.05327 11.4247 7.94886 11.2885 7.91406C11.0355 7.84915 10.7931 7.74944 10.5681 7.61867C10.4454 7.54812 10.2928 7.54812 10.1702 7.61961L9.61007 7.94604L9.24309 7.58857L9.58303 7.03544H9.58399C9.65642 6.91786 9.65739 6.7711 9.58592 6.65163C9.45362 6.43245 9.35415 6.19447 9.29041 5.948C9.25565 5.81348 9.14845 5.70812 9.01035 5.67426L8.37683 5.51999L8.37587 5.01389Z" fill="var(--fill-0, black)"/>
</g>
</g>
</svg>
