<svg preserveAspectRatio="none" width="100%" height="100%" overflow="visible" style="display: block;" viewBox="0 0 17.5 21.1937" fill="none" xmlns="http://www.w3.org/2000/svg">
<g id="Group">
<path id="Vector" d="M0.75 4.44365V17.4437C0.75 18.2393 1.06607 19.0024 1.62868 19.565C2.19129 20.1276 2.95435 20.4437 3.75 20.4437H13.75C14.5456 20.4437 15.3087 20.1276 15.8713 19.565C16.4339 19.0024 16.75 18.2393 16.75 17.4437V12.4437M0.75 4.44365V3.44365M0.75 4.44365H13.75C14.5456 4.44365 15.3087 4.75972 15.8713 5.32233C16.4339 5.88494 16.75 6.648 16.75 7.44365V8.44365" stroke="var(--stroke-0, #6492A1)" stroke-width="1.5" stroke-linecap="round"/>
<path id="Vector_2" d="M5.75 11.4437C5.75 10.8503 5.92595 10.2703 6.25559 9.77694C6.58524 9.28359 7.05377 8.89908 7.60195 8.67201C8.15013 8.44495 8.75333 8.38554 9.33527 8.5013C9.91721 8.61705 10.4518 8.90277 10.8713 9.32233C11.2909 9.74189 11.5766 10.2764 11.6924 10.8584C11.8081 11.4403 11.7487 12.0435 11.5216 12.5917C11.2946 13.1399 10.9101 13.6084 10.4167 13.9381C9.92336 14.2677 9.34334 14.4437 8.75 14.4437" stroke="var(--stroke-0, #6492A1)" stroke-width="1.5" stroke-linecap="round"/>
<path id="Vector_3" d="M14.75 4.44365V5.19365H15.5V4.44365H14.75ZM1.82 5.19365H14.75V3.69365H1.821L1.82 5.19365ZM15.5 4.44365V2.74965H14V4.44365H15.5ZM12.361 0.0276521L1.564 1.56965L1.776 3.05465L12.573 1.51365L12.361 0.0276521ZM1.564 1.56965C1.12975 1.63156 0.73243 1.84813 0.445091 2.17956C0.157753 2.511 -0.000295033 2.93501 4.13469e-07 3.37365H1.5C1.49975 3.29623 1.52758 3.22134 1.57833 3.16286C1.62908 3.10439 1.69931 3.0653 1.776 3.05465L1.564 1.56965ZM15.5 2.74965C15.5 2.35568 15.4152 1.96631 15.2516 1.60791C15.088 1.24952 14.8493 0.930468 14.5516 0.672358C14.254 0.414247 13.9044 0.223106 13.5264 0.111876C13.1485 0.000645042 12.751 -0.0280777 12.361 0.0276521L12.573 1.51365C12.7503 1.4883 12.9309 1.50032 13.1027 1.55085C13.2745 1.60138 13.4335 1.68824 13.5688 1.80553C13.7041 1.92283 13.8126 2.06783 13.887 2.23072C13.9614 2.39361 13.9999 2.57058 14 2.74965H15.5ZM1.821 3.69365C1.73587 3.69365 1.65422 3.65983 1.59402 3.59963C1.53382 3.53943 1.5 3.45879 1.5 3.37365H4.13469e-07C-0.000131037 3.61283 0.0468808 3.84868 0.138348 4.06967C0.229815 4.29067 0.363944 4.49147 0.533066 4.66059C0.702187 4.82971 0.902985 4.96384 1.12398 5.0553C1.34497 5.14677 1.58083 5.19378 1.82 5.19365L1.821 3.69365Z" fill="var(--fill-0, #6492A1)"/>
<path id="Vector_4" d="M6.75 17.4437H10.75" stroke="var(--stroke-0, #6492A1)" stroke-width="1.5" stroke-linecap="round"/>
</g>
</svg>
