<svg preserveAspectRatio="none" width="100%" height="100%" overflow="visible" style="display: block;" viewBox="0 0 20.1111 21.7778" fill="none" xmlns="http://www.w3.org/2000/svg">
<path id="Vector" d="M6.76294 10.9158H13.3482M6.76294 15.921H13.3277M6.76294 5.72222H10.7368M19.3376 17.9221C19.4804 15.652 19.5556 13.2995 19.5556 10.8889C19.5556 9.9126 19.5433 8.94583 19.5191 7.99018C19.5022 7.31884 19.2837 6.66641 18.8852 6.12505C17.3661 4.06162 16.1559 2.77881 14.1615 1.24405C13.6134 0.822276 12.9408 0.593444 12.2487 0.578358C11.5546 0.563237 10.8298 0.555556 10.0556 0.555556C7.71173 0.555556 5.82106 0.625943 3.86449 0.760069C2.20002 0.874184 0.878089 2.19535 0.773572 3.85561C0.630675 6.12579 0.555556 8.47831 0.555556 10.8889C0.555556 13.2995 0.630675 15.652 0.773572 17.9221C0.878089 19.5825 2.20002 20.9036 3.86449 21.0176C5.82106 21.1518 7.71173 21.2222 10.0556 21.2222C12.3994 21.2222 14.2901 21.1518 16.2466 21.0176C17.911 20.9036 19.2331 19.5825 19.3376 17.9221Z" stroke="var(--stroke-0, #1E1F33)" stroke-width="1.11111" stroke-linecap="round"/>
</svg>
