<svg width="160" height="161" viewBox="0 0 160 161" fill="none" xmlns="http://www.w3.org/2000/svg">
<path d="M60 65C56.875 69.175 55 74.375 55 80C55 93.8 66.2 105 80 105C93.8 105 105 93.8 105 80C105 66.2 93.8 55 80 55C76.425 55 73 55.75 69.925 57.125" stroke="#70C969" stroke-width="4.5" stroke-linecap="round" stroke-linejoin="round"/>
<path d="M76.4496 88.95C75.9496 88.95 75.4746 88.75 75.1246 88.4L68.0496 81.325C67.3246 80.6 67.3246 79.4 68.0496 78.675C68.7746 77.95 69.9746 77.95 70.6996 78.675L76.4496 84.425L89.2996 71.575C90.0246 70.85 91.2246 70.85 91.9496 71.575C92.6746 72.3 92.6746 73.5 91.9496 74.225L77.7746 88.4C77.4246 88.75 76.9496 88.95 76.4496 88.95Z" fill="#70C969"/>
</svg>
