<svg preserveAspectRatio="none" width="100%" height="100%" overflow="visible" style="display: block;" viewBox="0 0 21.5 18.5" fill="none" xmlns="http://www.w3.org/2000/svg">
<path id="Vector" d="M18.7339 5.90501C18.2093 5.73232 17.75 6.19772 17.75 6.75V10.75C17.75 11.3023 18.2093 11.7677 18.7339 11.595C19.9268 11.2023 20.75 10.1028 20.75 8.75C20.75 7.39721 19.9268 6.29771 18.7339 5.90501ZM10.0429 4.45711C9.85536 4.64464 9.601 4.75 9.33579 4.75H2.75C1.65 4.75 0.75 5.65 0.75 6.75V10.75C0.75 11.85 1.65 12.75 2.75 12.75C3.30228 12.75 3.75 13.1977 3.75 13.75V15.75C3.75 16.85 4.65 17.75 5.75 17.75H6.75C7.30228 17.75 7.75 17.3023 7.75 16.75V13.75C7.75 13.1977 8.19772 12.75 8.75 12.75H9.33579C9.601 12.75 9.85536 12.8554 10.0429 13.0429L13.4571 16.4571C13.6446 16.6446 13.899 16.75 14.1642 16.75H14.75C15.3023 16.75 15.75 16.3023 15.75 15.75V1.75C15.75 1.19772 15.3023 0.75 14.75 0.75H14.1642C13.899 0.75 13.6446 0.855357 13.4571 1.04289L10.0429 4.45711Z" stroke="var(--stroke-0, white)" stroke-width="1.5"/>
</svg>
