<svg preserveAspectRatio="none" width="100%" height="100%" overflow="visible" style="display: block;" viewBox="0 0 38.25 38.3851" fill="none" xmlns="http://www.w3.org/2000/svg">
<g id="tick-circle">
<g id="Group">
<path id="Vector" d="M6.375 9.59627C4.38281 12.2672 3.1875 15.5939 3.1875 19.1925C3.1875 28.0211 10.3275 35.1863 19.125 35.1863C27.9225 35.1863 35.0625 28.0211 35.0625 19.1925C35.0625 10.364 27.9225 3.19876 19.125 3.19876C16.8459 3.19876 14.6625 3.67857 12.7022 4.55823" stroke="var(--stroke-0, #70C969)" stroke-width="2" stroke-linecap="round" stroke-linejoin="round"/>
<g id="Vector_2" opacity="0">
</g>
</g>
<path id="Vector_3" d="M16.8616 24.9183C16.5429 24.9183 16.2401 24.7904 16.0169 24.5665L11.5066 20.0402C11.0444 19.5764 11.0444 18.8087 11.5066 18.3449C11.9688 17.8811 12.7338 17.8811 13.196 18.3449L16.8616 22.0234L25.0535 13.8026C25.5157 13.3388 26.2807 13.3388 26.7429 13.8026C27.2051 14.2665 27.2051 15.0342 26.7429 15.498L17.7063 24.5665C17.4832 24.7904 17.1804 24.9183 16.8616 24.9183Z" fill="var(--fill-0, #70C969)"/>
</g>
</svg>
