<svg preserveAspectRatio="none" width="100%" height="100%" overflow="visible" style="display: block;" viewBox="0 0 16.9999 18.0049" fill="none" xmlns="http://www.w3.org/2000/svg">
<path id="Union" d="M14.4486 5.89453C14.8617 5.92261 15.1737 6.28024 15.1459 6.69336L14.5863 15.0029V15.0068C14.544 15.5854 14.5073 16.4274 14.0013 17.0586C13.4506 17.7453 12.5308 18.0049 11.2631 18.0049H5.73572C4.46799 18.0048 3.5481 17.7454 2.99744 17.0586C2.49151 16.4273 2.45477 15.5854 2.41248 15.0068V15.0029L1.85291 6.69336C1.82509 6.28033 2.13727 5.92275 2.55018 5.89453C2.96332 5.8667 3.32097 6.17872 3.349 6.5918L3.90858 14.8975C3.96095 15.6137 4.01065 15.9243 4.16736 16.1201C4.27979 16.2603 4.60196 16.5048 5.73572 16.5049H11.2631C12.396 16.5049 12.7177 16.2604 12.8305 16.1201C12.9874 15.9243 13.0378 15.6141 13.0902 14.8975L13.6498 6.5918C13.6778 6.17882 14.0356 5.86687 14.4486 5.89453ZM10.0062 11.9697C10.3842 12.0083 10.6791 12.3277 10.6791 12.7158C10.679 13.1039 10.3842 13.4233 10.0062 13.4619L9.92908 13.4658H7.0619C6.64775 13.4658 6.31201 13.1299 6.3119 12.7158C6.3119 12.3016 6.64768 11.9658 7.0619 11.9658H9.92908L10.0062 11.9697ZM10.6527 8.66504C11.0668 8.6652 11.4027 9.00093 11.4027 9.41504C11.4026 9.82906 11.0667 10.1649 10.6527 10.165H6.34705C5.93291 10.165 5.59716 9.82916 5.59705 9.41504C5.59705 9.00083 5.93284 8.66504 6.34705 8.66504H10.6527ZM9.62733 0C10.4369 0 11.092 0.169269 11.5287 0.651367C11.9261 1.09037 12.0062 1.66966 12.0619 1.99805H12.0629L12.2377 2.99023C13.6007 3.05961 14.9629 3.15914 16.3207 3.28809C16.7328 3.32745 17.0355 3.6933 16.9965 4.10547C16.9572 4.51754 16.5911 4.82006 16.1791 4.78125C13.3347 4.51112 10.473 4.37208 7.62147 4.37207C5.94108 4.37208 4.2602 4.45353 2.57947 4.61621H2.57752L0.820684 4.78125C0.408371 4.81999 0.0421729 4.51676 0.00330165 4.10449C-0.0352253 3.6923 0.267869 3.3269 0.680059 3.28809L2.43494 3.12402V3.12305C3.2129 3.04775 3.99089 2.98965 4.76893 2.94824L4.9369 1.99023L4.98865 1.69922C5.05474 1.37322 5.17535 0.960602 5.47693 0.632812C5.91627 0.15538 6.57266 2.98915e-05 7.37147 0H9.62733ZM7.37147 1.5C6.72089 1.50003 6.5938 1.63499 6.58143 1.64844C6.56775 1.66331 6.54047 1.70001 6.50916 1.7998C6.47478 1.90954 6.44986 2.04285 6.41346 2.25L6.30115 2.8877C6.74111 2.87686 7.18149 2.87207 7.62147 2.87207C8.64784 2.87207 9.67525 2.88973 10.7025 2.9248L10.5853 2.25879L10.5844 2.25391C10.5111 1.82353 10.4699 1.71648 10.4174 1.6582C10.4012 1.64033 10.2704 1.5 9.62733 1.5H7.37147Z" fill="var(--fill-0, #111122)"/>
</svg>
