<svg preserveAspectRatio="none" width="100%" height="100%" overflow="visible" style="display: block;" viewBox="0 0 24 24" fill="none" xmlns="http://www.w3.org/2000/svg">
<g id="user-octagon">
<g id="Vector">
<path d="M10.43 2.42C11.4 1.86 12.6 1.86 13.58 2.42L19.52 5.84999C20.49 6.40999 21.09 7.45003 21.09 8.58003V15.42C21.09 16.54 20.49 17.58 19.52 18.15L13.58 21.58C12.61 22.14 11.41 22.14 10.43 21.58L4.49 18.15C3.52 17.59 2.92 16.55 2.92 15.42V8.58003C2.92 7.46003 3.52 6.41999 4.49 5.84999L6.39 4.75002" fill="var(--fill-0, #CCEBC7)"/>
<path d="M10.43 2.42C11.4 1.86 12.6 1.86 13.58 2.42L19.52 5.84999C20.49 6.40999 21.09 7.45003 21.09 8.58003V15.42C21.09 16.54 20.49 17.58 19.52 18.15L13.58 21.58C12.61 22.14 11.41 22.14 10.43 21.58L4.49 18.15C3.52 17.59 2.92 16.55 2.92 15.42V8.58003C2.92 7.46003 3.52 6.41999 4.49 5.84999L6.39 4.75002" stroke="var(--stroke-0, #60C257)" stroke-width="1.5" stroke-linecap="round" stroke-linejoin="round"/>
</g>
<g id="Group">
<path id="Vector_2" d="M12 11C13.2868 11 14.33 9.95681 14.33 8.66998C14.33 7.38316 13.2868 6.34003 12 6.34003C10.7132 6.34003 9.67 7.38316 9.67 8.66998C9.67 9.95681 10.7132 11 12 11Z" stroke="var(--stroke-0, #60C257)" stroke-width="1.5" stroke-linecap="round" stroke-linejoin="round"/>
<path id="Vector_3" d="M16 16.66C16 14.86 14.21 13.4 12 13.4C9.79 13.4 8 14.86 8 16.66" stroke="var(--stroke-0, #60C257)" stroke-width="1.5" stroke-linecap="round" stroke-linejoin="round"/>
</g>
<g id="Vector_4" opacity="0">
</g>
</g>
</svg>
