<svg width="208" height="208" viewBox="0 0 208 208" fill="none" xmlns="http://www.w3.org/2000/svg">
<path d="M109.648 177.945C111.478 178.007 113.377 178.01 115.214 178.036C116.68 179.284 122.597 184.835 123.03 186.344C122.174 188.465 106.496 203.998 103.813 206.773C102.975 206.057 101.935 204.957 101.135 204.157L90.9215 193.744C89.4016 192.198 84.9281 188.127 84.5139 186.148C84.9265 184.723 90.7007 179.494 92.1585 178.086C97.9818 177.915 103.843 178.169 109.648 177.945ZM103.731 203.33L105.3 198.986L109.634 187.092C105.948 187.041 101.449 186.924 97.7937 187.085C99.6602 192.428 101.653 198.075 103.731 203.33ZM115.118 180.335C114.128 182.017 113.146 183.705 112.174 185.398L117.34 185.484C118.229 185.471 119.402 185.491 120.263 185.438C118.424 183.714 116.857 182.004 115.118 180.335ZM101.825 179.849L93.7373 179.869C94.7542 181.482 95.8221 183.255 96.869 184.831L99.5984 182.15C100.309 181.442 101.193 180.606 101.825 179.849ZM95.3319 185.385C94.7471 184.415 92.8774 181.18 92.1721 180.531C90.6675 182.048 88.8308 184.011 87.2935 185.429L90.8235 185.407C92.4506 185.454 93.692 185.462 95.3319 185.385ZM111.586 187.069L105.882 202.171C107.295 200.714 108.819 199.08 110.269 197.688C113.499 194.384 117.306 190.102 120.536 187.06L111.586 187.069ZM113.771 179.875L105.575 179.864C107.286 181.44 109.057 183.562 110.642 184.917C111.052 184.162 111.512 183.26 111.943 182.534C112.47 181.738 113.189 180.585 113.771 179.875ZM103.39 185.383L108.72 185.389C107.336 183.991 105.048 181.567 103.575 180.414C101.864 182.209 100.354 183.802 98.492 185.436C100.125 185.405 101.756 185.387 103.39 185.383ZM101.225 201.635C99.4174 196.795 97.6492 191.938 95.924 187.066C92.9049 187.036 89.8852 187.043 86.866 187.089C91.1928 191.459 95.3688 195.976 99.7725 200.27C100.237 200.721 100.705 201.25 101.225 201.635Z" fill="url(#paint0_linear_69_16545)"/>
<path d="M107.323 125.579C129.951 126.09 173.227 120.067 191.826 107.074C195.484 104.518 199.438 100.997 200.217 96.3715C200.725 93.341 199.685 90.4381 197.924 87.9983C192.045 79.8635 178.608 75.2814 169.328 72.6273C167.262 72.0371 165.432 71.3267 163.295 70.999L163.464 70.8778C164.14 70.9477 164.811 71.0494 165.475 71.1831C191.89 76.3412 223.22 95.6029 182.83 114.344C163.924 123.115 141.4 125.622 120.898 127.487C118.284 127.725 109.391 128.337 107.165 127.824C105.841 129.505 104.945 130.703 103.786 132.498C102.764 131.353 101.147 129.238 100.313 127.987C96.4789 128.173 88.9433 127.726 84.9721 127.393C63.7507 125.614 40.7852 122.139 21.5428 112.556C16.2299 109.853 7.89577 104.334 6.26386 98.2768C2.40443 83.95 25.2419 76.1316 34.778 73.1614L34.9237 73.5806C19.3989 78.2778 -7.16328 92.5206 17.4933 108.031C32.4052 117.412 53.2005 121.057 70.4014 123.595C79.8454 124.989 90.3422 125.361 99.9191 125.623C101.085 124.424 102.485 121.854 104.07 121.869C105.112 122.437 106.542 124.532 107.323 125.579Z" fill="url(#paint1_linear_69_16545)"/>
<path d="M99.7015 35.9473C110.924 35.4201 119.461 36.9492 129.25 43.0519C140.855 50.2877 148.725 62.2832 151.811 75.5667C152.086 76.749 152.304 78.0606 151.639 79.1295C150.968 79.5255 151.314 79.4592 150.574 79.3757C148.909 78.1358 148.808 74.4339 148.16 72.4386C146.412 67.0545 144.043 61.9544 140.765 57.3766C133.627 47.444 122.824 40.7996 110.773 38.93C85.5051 35.7506 64.3635 51.2079 58.4463 76.0598C58.3407 76.5035 57.8816 76.7057 57.5367 76.9285C56.7083 76.9381 57.037 77.0196 56.293 76.5764C56.1892 76.3928 55.9237 75.9171 55.968 75.693C59.2771 58.8633 71.2261 44.4054 87.4289 38.6366C91.7719 37.0903 95.134 36.5334 99.7015 35.9473Z" fill="url(#paint2_linear_69_16545)"/>
<path d="M101.66 46.7783C116.907 44.7625 133.71 56.6633 139.349 70.3322C139.876 71.6125 140.765 73.1646 139.432 74.3048C138.729 74.2385 137.943 73.6411 137.677 73.0521C132.015 60.5176 122.338 51.3068 108.207 49.6243C98.0265 48.4121 89.1474 51.2445 80.8487 57.8447C75.1872 62.6855 70.5723 69.8352 69.0659 77.1666C67.8763 82.9559 67.9098 89.0027 61.3567 91.5001C59.5337 92.1948 54.6295 94.6708 53.6765 91.6227C53.4875 91.027 53.5439 90.3801 53.8328 89.8263C54.1551 89.214 54.7335 88.7791 55.409 88.6408C56.5672 88.3973 57.2954 88.8511 58.1932 89.4606L58.4376 89.6284C66.8127 87.0772 64.7969 81.5102 67.0879 73.9686C68.6089 69.0196 71.0987 64.4258 74.4106 60.4562C81.6283 51.8872 90.6597 47.6934 101.66 46.7783Z" fill="url(#paint3_linear_69_16545)"/>
<path d="M101.037 57.8182C105.451 56.8076 112.873 58.8077 116.939 61.0027C123.775 64.7281 128.858 71.0278 131.071 78.5167C131.659 80.462 132.051 82.4623 132.239 84.4871C132.466 86.8972 132.812 100.823 131.866 102.324C131.511 102.884 131.247 102.947 130.652 103.119C130.203 102.969 129.928 102.987 129.79 102.638C129.307 101.416 129.593 99.3256 129.614 98.0283C129.754 88.7949 130.672 80.4926 125.392 72.3479C121.399 66.187 115.847 62.3792 108.748 60.8319C106.871 60.4467 104.956 60.2822 103.044 60.3416C92.0369 60.7187 82.4823 68.07 79.2526 78.6453C77.4344 84.6357 78.522 91.3825 73.7239 96.8388C73.1734 97.4647 72.7185 97.4834 72.0393 97.45C71.7115 97.1911 71.4654 97.1191 71.4883 96.7617C71.6384 94.4264 74.1781 91.1763 74.6965 88.852C75.11 86.9276 75.2875 84.8856 75.548 82.9246C77.3318 69.501 87.5315 59.1984 101.037 57.8182Z" fill="url(#paint4_linear_69_16545)"/>
<path d="M102.833 69.7843C103.069 69.7454 103.206 69.7226 103.447 69.7185C114.041 69.5353 122.288 79.0446 122.002 89.4238C121.974 90.3926 122.032 90.5755 121.333 91.2778C120.6 91.4722 120.575 91.4865 119.892 91.224C117.649 88.5531 121.317 81.0702 111.964 74.9176C108.608 72.715 104.507 71.9692 100.595 72.8496C95.0804 74.0381 89.9125 78.9318 88.9579 84.3943C87.6518 91.8689 87.0459 96.4065 82.8515 102.977C79.6264 107.913 74.587 111.93 69.21 114.248C67.9317 114.799 66.553 115.108 65.2603 115.615C63.9099 116.128 62.5172 117.29 61.0263 117.283C59.5658 117.276 58.1494 116.681 58.135 115.054C59.1028 111.973 63.1102 112.666 65.4969 113.058C68.5564 111.208 71.2742 110.644 74.5682 108.007C79.9682 103.686 83.4352 98.0115 84.8923 91.2428C86.1264 85.5104 86.0515 81.159 90.0458 76.3336C93.5513 72.099 97.5035 70.3439 102.833 69.7843Z" fill="url(#paint5_linear_69_16545)"/>
<path d="M102.425 82.8443C103.511 82.7567 104.638 82.7247 105.703 82.9914C107.563 83.4477 109.153 84.6546 110.097 86.3268C112.181 89.9464 111.041 98.5469 111.151 102.824C111.16 103.233 110.55 103.674 110.204 103.857C109.575 103.822 108.757 103.655 108.649 102.839C107.886 99.1613 109.263 93.1946 108.335 89.7372C106.555 83.0924 99.1288 84.5329 98.6454 91.4651C98.2766 96.7472 96.33 102.192 94.0115 106.832C92.518 110.001 84.6878 121.769 81.1502 121.217C80.613 120.699 80.227 119.764 80.7931 119.237C84.4603 115.819 87.0237 113.228 89.729 108.923C92.3863 104.755 94.2667 100.137 95.2785 95.2925C96.4067 89.644 95.7323 84.8792 102.425 82.8443Z" fill="url(#paint6_linear_69_16545)"/>
<path d="M140.057 77.6303C140.809 77.808 140.912 77.8323 141.516 78.3077C143.979 82.883 142.744 113.148 138.726 116.748C137.776 116.508 137.597 116.419 137.15 115.755C137.123 114.622 138.967 107.136 139.276 104.722C140.073 98.5004 140 92.6833 139.851 86.3779C139.796 84.0536 139.306 81.1169 139.375 78.7721C139.384 78.5227 139.876 77.8639 140.057 77.6303Z" fill="url(#paint7_linear_69_16545)"/>
<path d="M103.69 1.22717C104.347 2.27578 103.981 6.98012 106.175 9.48761C108.743 12.4226 112.701 12.4997 116.373 12.9356C106.262 13.37 104.929 15.7631 103.806 25.4366C103.128 22.298 103.323 18.8675 101.037 16.0717C98.7485 13.275 94.5574 13.1808 91.1859 12.8914C100.877 12.0457 102.283 10.8298 103.69 1.22717Z" fill="url(#paint8_linear_69_16545)"/>
<path d="M184.252 65.3869C173.83 40.5525 148.998 22.581 123.564 15.9806C122.316 15.6561 121.017 15.3671 119.757 15.0454L119.947 14.8788C125.552 15.3089 134.133 18.1369 139.327 20.241C159.075 28.2437 176.661 45.1747 184.674 65.2245L184.252 65.3869Z" fill="url(#paint9_linear_69_16545)"/>
<path d="M188.11 123.183L188.527 123.597C182.067 144.87 167.425 162.676 147.848 173.066C140.16 177.166 134.578 178.882 126.443 181.174L126.004 180.747C132.234 179.615 141.594 175.061 147.099 172.002C165.64 161.695 182.285 144.049 188.11 123.183Z" fill="url(#paint10_linear_69_16545)"/>
<path d="M18.1347 118.304C18.2657 118.569 18.6597 120.131 18.7412 120.471C25.4476 148.426 49.0898 169.835 75.556 178.962C78.2208 179.881 80.9708 180.519 83.6072 181.513C80.9559 181.346 77.3813 180.207 74.8587 179.451C64.0753 176.22 52.2093 169.941 43.8649 162.237C33.7419 152.891 24.5473 140.52 20.2726 127.293C19.4486 124.744 18.268 120.981 18.1347 118.304Z" fill="url(#paint11_linear_69_16545)"/>
<path d="M87.0701 130.453L90.8194 130.429C83.3044 138.03 81.5089 140.016 71.2687 144.474C70.1352 144.957 68.2399 145.349 67.7027 143.887C68.1851 142.021 72.0315 141.345 73.6254 140.529C78.2217 138.178 83.8878 134.555 87.0701 130.453Z" fill="url(#paint12_linear_69_16545)"/>
<path d="M94.573 139.85C95.6984 139.884 95.5012 139.715 96.3217 140.276C97.6989 143.978 83.6322 152.829 80.6274 154.464C79.5836 154.671 79.3277 154.44 78.657 153.734C78.476 151.816 82.6639 150.083 84.2484 149.072C88.1598 146.574 91.6459 143.461 94.573 139.85Z" fill="url(#paint13_linear_69_16545)"/>
<path d="M120.144 96.2764C120.474 96.4099 121.255 96.6453 121.367 96.9037C123.216 101.193 117.21 113.022 114.415 115.23C113.487 115.015 113.235 114.949 112.791 114.117C112.779 112.418 114.939 110.355 115.759 108.893C117.782 105.283 118.38 101.328 119.308 97.36C119.372 97.0887 119.931 96.4971 120.144 96.2764Z" fill="url(#paint14_linear_69_16545)"/>
<path d="M111.105 141.121C111.368 141.168 112.094 141.319 112.273 141.481C115.739 144.642 118.735 148.403 122.968 150.625C124.02 151.177 126.098 152.237 126.457 153.446C126.416 154.242 126.288 154.342 125.846 155.047C122.313 154.456 111.691 146.071 110.571 142.732C110.543 141.918 110.647 141.808 111.105 141.121Z" fill="url(#paint15_linear_69_16545)"/>
<path d="M118.096 132.928C119.216 134.061 120.279 134.741 121.729 135.411C121.924 135.588 123.96 136.761 124.249 136.838C127.133 139.117 129.98 140.981 133.258 142.596C134.75 143.331 136.071 143.585 135.799 145.42C135.469 145.733 135.114 146.059 134.61 145.923C128.125 144.173 121.681 138.26 117.801 133.288L118.096 132.928Z" fill="url(#paint16_linear_69_16545)"/>
<path d="M128.872 106.709L129.939 106.741C131.538 107.856 130.477 110.389 129.9 111.883C129.158 113.809 125.912 121.213 124.258 121.95C123.326 121.954 122.907 122.045 122.21 121.571C122.119 121.118 122.043 120.645 122.345 120.235C123.727 118.362 124.503 116.837 125.541 114.88C126.691 112.707 127.758 108.409 128.872 106.709Z" fill="url(#paint17_linear_69_16545)"/>
<path d="M151.009 82.8779L151.978 83.1255C153.66 84.4183 153.419 95.2621 152.413 97.0492C151.745 97.1115 151.772 97.1122 151.119 96.9422C149.527 95.4296 150.345 89.179 150.191 87.0284C150.093 85.6109 150.162 84.0634 151.009 82.8779Z" fill="url(#paint18_linear_69_16545)"/>
<path d="M41.1277 29.0659C41.6548 29.8757 41.7578 31.2793 42.7252 32.5311C44.121 34.337 45.8195 34.3013 47.9705 34.5936C43.2044 35.3663 42.1702 36.1061 41.2099 40.9703C39.9397 35.9446 39.175 35.6176 34.2923 34.5588C38.7925 34.1076 39.8226 33.4872 41.1277 29.0659Z" fill="url(#paint19_linear_69_16545)"/>
<path d="M68.4841 128.113C69.511 128.136 71.6812 128.602 72.7778 128.805C70.0193 130.664 65.7056 132.391 62.6136 133.551C61.2918 134.113 60.5297 134.68 59.3521 133.723C58.3796 131.277 66.2068 129.497 68.4841 128.113Z" fill="url(#paint20_linear_69_16545)"/>
<path d="M85.9809 15.2295C86.2118 15.1763 87.0287 15.1658 87.3139 15.1559L86.9955 15.3765L87.4403 15.1957C73.5709 18.1965 62.1415 23.5995 50.3169 31.4294C49.7156 31.8599 49.662 31.9453 48.9574 32.049C48.9922 31.9292 49.0314 31.7481 49.1324 31.6687C59.5587 23.4441 72.9311 17.2489 85.9809 15.2295Z" fill="url(#paint21_linear_69_16545)"/>
<path d="M134.232 128.729C134.369 128.746 134.505 128.764 134.64 128.781L134.816 128.813C136.271 129.063 140.002 132.653 141.998 133.099C142.605 133.234 145.583 134.613 145.857 135.103C145.901 135.869 145.853 135.664 145.303 136.46C142.126 136.487 135.146 132.919 133.696 130.178C133.678 129.288 133.618 129.635 134.232 128.729Z" fill="url(#paint22_linear_69_16545)"/>
<path d="M66.6801 99.5507L67.6626 99.7262C68.3127 100.313 68.1269 100.014 68.3652 100.859C67.8106 103.534 60.8018 104.596 58.4525 104.998C57.864 104.917 57.8404 104.872 57.3266 104.613C56.7589 103.83 56.8698 104.173 56.7848 103.297C57.0031 102.957 57.2739 102.519 57.7094 102.434C61.17 101.759 63.523 101.213 66.6801 99.5507Z" fill="url(#paint23_linear_69_16545)"/>
<path d="M37.8757 42.5015C37.8718 43.8982 35.0311 46.5208 34.1237 47.7903C32.7246 49.6236 31.4555 51.5551 30.1278 53.4397C25.4343 60.1027 23.0206 66.8474 20.3283 74.4451C20.3244 74.3388 20.3205 74.2323 20.3166 74.126C22.1205 63.9451 31.0988 49.1095 37.8757 42.5015Z" fill="url(#paint24_linear_69_16545)"/>
<path d="M103.206 134.876C103.669 134.916 103.832 135.004 104.253 135.17C105.323 136.522 104.961 139.586 104.107 140.973C103.845 140.891 103.461 140.712 103.195 140.6C102.072 139.276 102.279 136.271 103.206 134.876Z" fill="url(#paint25_linear_69_16545)"/>
<path d="M103.149 105.441C105.632 105.801 105.181 109.707 104.26 111.051C103.596 110.976 103.561 110.984 103.014 110.624C102.102 109.287 102.235 106.706 103.149 105.441Z" fill="url(#paint26_linear_69_16545)"/>
<path d="M103.172 113.491C105.664 113.884 105.119 117.586 104.171 119.083C101.731 118.48 102.175 115.078 103.172 113.491Z" fill="url(#paint27_linear_69_16545)"/>
<path d="M103.399 164.567C103.719 164.698 104.008 164.869 104.315 165.034C105.263 166.434 105.089 168.964 103.983 170.224L103.108 169.769C102.013 168.398 102.249 165.849 103.399 164.567Z" fill="url(#paint28_linear_69_16545)"/>
<path d="M115.707 130.776C116.667 130.757 117.904 130.698 118.836 130.747C120.753 133.038 122.226 134.694 124.249 136.838C123.96 136.761 121.924 135.588 121.729 135.411C121.191 134.463 119.232 132.604 118.108 132.606L118.096 132.928L117.801 133.288L115.707 130.776Z" fill="url(#paint29_linear_69_16545)"/>
<path d="M103.38 157.014L104.21 157.435C105.282 158.8 105.098 161.266 103.969 162.555L103.133 162.166C102.125 160.806 102.178 158.221 103.38 157.014Z" fill="url(#paint30_linear_69_16545)"/>
<path d="M149.942 106.84C151.057 107.056 150.771 106.847 151.428 107.501C151.939 109.011 151.028 110.717 150.453 112.256L149.942 112.396C148.522 111.632 149.291 108.038 149.942 106.84Z" fill="url(#paint31_linear_69_16545)"/>
<path d="M103.873 148.384C104.434 149.072 104.157 150.402 104.271 151.332C104.487 153.066 104.97 153.343 104.175 154.976C103.79 154.923 103.284 154.88 103.016 154.605C101.873 153.435 103.053 149.389 103.873 148.384Z" fill="url(#paint32_linear_69_16545)"/>
<path d="M18.5319 84.1187C18.6975 84.9763 18.2336 86.8036 18.0703 87.7194C17.2296 92.4375 16.4998 97.1704 16.3076 101.965C15.6355 97.3614 16.8679 88.4857 18.5319 84.1187Z" fill="url(#paint33_linear_69_16545)"/>
<path d="M103.213 142.427C105.699 142.976 104.281 146.067 103.898 147.857L103.834 148.009C102.457 146.48 102.629 144.263 103.213 142.427Z" fill="url(#paint34_linear_69_16545)"/>
<path d="M189.297 84.7685C191.019 87.2447 191.475 97.1796 191.416 100.376C191.409 100.358 189.475 86.0102 189.297 84.7685Z" fill="url(#paint35_linear_69_16545)"/>
<path d="M34.778 73.1614C37.222 72.3242 40.4253 71.5803 42.9683 70.9468L43.365 71.2172L34.9237 73.5806L34.778 73.1614Z" fill="url(#paint36_linear_69_16545)"/>
<path d="M184.674 65.2245C185.212 66.4008 186.882 70.6914 186.868 71.8514C186.362 70.9602 184.733 66.5915 184.252 65.3869L184.674 65.2245Z" fill="url(#paint37_linear_69_16545)"/>
<path d="M118.096 132.928L118.108 132.606C119.232 132.604 121.191 134.463 121.729 135.411C120.279 134.741 119.216 134.061 118.096 132.928Z" fill="url(#paint38_linear_69_16545)"/>
<path d="M42.9683 70.9468C44.2772 70.6916 45.6191 70.288 46.8911 70.4325C45.7634 70.7772 44.5338 71.0464 43.365 71.2172L42.9683 70.9468Z" fill="url(#paint39_linear_69_16545)"/>
<path d="M188.11 123.183C188.296 122.524 188.621 121.043 189.049 120.643C189.097 121.708 188.802 122.568 188.527 123.597L188.11 123.183Z" fill="url(#paint40_linear_69_16545)"/>
<path d="M126.443 181.174C125.452 181.374 124.748 181.568 123.736 181.484C124.153 181.074 125.367 180.894 126.004 180.747L126.443 181.174Z" fill="url(#paint41_linear_69_16545)"/>
<defs>
<linearGradient id="paint0_linear_69_16545" x1="202.21" y1="1.12012" x2="57.7724" y2="149.19" gradientUnits="userSpaceOnUse">
<stop stop-color="#3852AF"/>
<stop offset="1" stop-color="#010204"/>
</linearGradient>
<linearGradient id="paint1_linear_69_16545" x1="202.21" y1="1.12012" x2="57.7724" y2="149.19" gradientUnits="userSpaceOnUse">
<stop stop-color="#3852AF"/>
<stop offset="1" stop-color="#010204"/>
</linearGradient>
<linearGradient id="paint2_linear_69_16545" x1="202.21" y1="1.12012" x2="57.7724" y2="149.19" gradientUnits="userSpaceOnUse">
<stop stop-color="#3852AF"/>
<stop offset="1" stop-color="#010204"/>
</linearGradient>
<linearGradient id="paint3_linear_69_16545" x1="202.21" y1="1.12012" x2="57.7724" y2="149.19" gradientUnits="userSpaceOnUse">
<stop stop-color="#3852AF"/>
<stop offset="1" stop-color="#010204"/>
</linearGradient>
<linearGradient id="paint4_linear_69_16545" x1="202.21" y1="1.12012" x2="57.7724" y2="149.19" gradientUnits="userSpaceOnUse">
<stop stop-color="#3852AF"/>
<stop offset="1" stop-color="#010204"/>
</linearGradient>
<linearGradient id="paint5_linear_69_16545" x1="202.21" y1="1.12012" x2="57.7724" y2="149.19" gradientUnits="userSpaceOnUse">
<stop stop-color="#3852AF"/>
<stop offset="1" stop-color="#010204"/>
</linearGradient>
<linearGradient id="paint6_linear_69_16545" x1="202.21" y1="1.12012" x2="57.7724" y2="149.19" gradientUnits="userSpaceOnUse">
<stop stop-color="#3852AF"/>
<stop offset="1" stop-color="#010204"/>
</linearGradient>
<linearGradient id="paint7_linear_69_16545" x1="202.21" y1="1.12012" x2="57.7724" y2="149.19" gradientUnits="userSpaceOnUse">
<stop stop-color="#3852AF"/>
<stop offset="1" stop-color="#010204"/>
</linearGradient>
<linearGradient id="paint8_linear_69_16545" x1="202.21" y1="1.12012" x2="57.7724" y2="149.19" gradientUnits="userSpaceOnUse">
<stop stop-color="#3852AF"/>
<stop offset="1" stop-color="#010204"/>
</linearGradient>
<linearGradient id="paint9_linear_69_16545" x1="202.21" y1="1.12012" x2="57.7724" y2="149.19" gradientUnits="userSpaceOnUse">
<stop stop-color="#3852AF"/>
<stop offset="1" stop-color="#010204"/>
</linearGradient>
<linearGradient id="paint10_linear_69_16545" x1="202.21" y1="1.12012" x2="57.7724" y2="149.19" gradientUnits="userSpaceOnUse">
<stop stop-color="#3852AF"/>
<stop offset="1" stop-color="#010204"/>
</linearGradient>
<linearGradient id="paint11_linear_69_16545" x1="202.21" y1="1.12012" x2="57.7724" y2="149.19" gradientUnits="userSpaceOnUse">
<stop stop-color="#3852AF"/>
<stop offset="1" stop-color="#010204"/>
</linearGradient>
<linearGradient id="paint12_linear_69_16545" x1="202.21" y1="1.12012" x2="57.7724" y2="149.19" gradientUnits="userSpaceOnUse">
<stop stop-color="#3852AF"/>
<stop offset="1" stop-color="#010204"/>
</linearGradient>
<linearGradient id="paint13_linear_69_16545" x1="202.21" y1="1.12012" x2="57.7724" y2="149.19" gradientUnits="userSpaceOnUse">
<stop stop-color="#3852AF"/>
<stop offset="1" stop-color="#010204"/>
</linearGradient>
<linearGradient id="paint14_linear_69_16545" x1="202.21" y1="1.12012" x2="57.7724" y2="149.19" gradientUnits="userSpaceOnUse">
<stop stop-color="#3852AF"/>
<stop offset="1" stop-color="#010204"/>
</linearGradient>
<linearGradient id="paint15_linear_69_16545" x1="202.21" y1="1.12012" x2="57.7724" y2="149.19" gradientUnits="userSpaceOnUse">
<stop stop-color="#3852AF"/>
<stop offset="1" stop-color="#010204"/>
</linearGradient>
<linearGradient id="paint16_linear_69_16545" x1="202.21" y1="1.12012" x2="57.7724" y2="149.19" gradientUnits="userSpaceOnUse">
<stop stop-color="#3852AF"/>
<stop offset="1" stop-color="#010204"/>
</linearGradient>
<linearGradient id="paint17_linear_69_16545" x1="202.21" y1="1.12012" x2="57.7724" y2="149.19" gradientUnits="userSpaceOnUse">
<stop stop-color="#3852AF"/>
<stop offset="1" stop-color="#010204"/>
</linearGradient>
<linearGradient id="paint18_linear_69_16545" x1="202.21" y1="1.12012" x2="57.7724" y2="149.19" gradientUnits="userSpaceOnUse">
<stop stop-color="#3852AF"/>
<stop offset="1" stop-color="#010204"/>
</linearGradient>
<linearGradient id="paint19_linear_69_16545" x1="202.21" y1="1.12012" x2="57.7724" y2="149.19" gradientUnits="userSpaceOnUse">
<stop stop-color="#3852AF"/>
<stop offset="1" stop-color="#010204"/>
</linearGradient>
<linearGradient id="paint20_linear_69_16545" x1="202.21" y1="1.12012" x2="57.7724" y2="149.19" gradientUnits="userSpaceOnUse">
<stop stop-color="#3852AF"/>
<stop offset="1" stop-color="#010204"/>
</linearGradient>
<linearGradient id="paint21_linear_69_16545" x1="202.21" y1="1.12012" x2="57.7724" y2="149.19" gradientUnits="userSpaceOnUse">
<stop stop-color="#3852AF"/>
<stop offset="1" stop-color="#010204"/>
</linearGradient>
<linearGradient id="paint22_linear_69_16545" x1="202.21" y1="1.12012" x2="57.7724" y2="149.19" gradientUnits="userSpaceOnUse">
<stop stop-color="#3852AF"/>
<stop offset="1" stop-color="#010204"/>
</linearGradient>
<linearGradient id="paint23_linear_69_16545" x1="202.21" y1="1.12012" x2="57.7724" y2="149.19" gradientUnits="userSpaceOnUse">
<stop stop-color="#3852AF"/>
<stop offset="1" stop-color="#010204"/>
</linearGradient>
<linearGradient id="paint24_linear_69_16545" x1="202.21" y1="1.12012" x2="57.7724" y2="149.19" gradientUnits="userSpaceOnUse">
<stop stop-color="#3852AF"/>
<stop offset="1" stop-color="#010204"/>
</linearGradient>
<linearGradient id="paint25_linear_69_16545" x1="202.21" y1="1.12012" x2="57.7724" y2="149.19" gradientUnits="userSpaceOnUse">
<stop stop-color="#3852AF"/>
<stop offset="1" stop-color="#010204"/>
</linearGradient>
<linearGradient id="paint26_linear_69_16545" x1="202.21" y1="1.12012" x2="57.7724" y2="149.19" gradientUnits="userSpaceOnUse">
<stop stop-color="#3852AF"/>
<stop offset="1" stop-color="#010204"/>
</linearGradient>
<linearGradient id="paint27_linear_69_16545" x1="202.21" y1="1.12012" x2="57.7724" y2="149.19" gradientUnits="userSpaceOnUse">
<stop stop-color="#3852AF"/>
<stop offset="1" stop-color="#010204"/>
</linearGradient>
<linearGradient id="paint28_linear_69_16545" x1="202.21" y1="1.12012" x2="57.7724" y2="149.19" gradientUnits="userSpaceOnUse">
<stop stop-color="#3852AF"/>
<stop offset="1" stop-color="#010204"/>
</linearGradient>
<linearGradient id="paint29_linear_69_16545" x1="202.21" y1="1.12012" x2="57.7724" y2="149.19" gradientUnits="userSpaceOnUse">
<stop stop-color="#3852AF"/>
<stop offset="1" stop-color="#010204"/>
</linearGradient>
<linearGradient id="paint30_linear_69_16545" x1="202.21" y1="1.12012" x2="57.7724" y2="149.19" gradientUnits="userSpaceOnUse">
<stop stop-color="#3852AF"/>
<stop offset="1" stop-color="#010204"/>
</linearGradient>
<linearGradient id="paint31_linear_69_16545" x1="202.21" y1="1.12012" x2="57.7724" y2="149.19" gradientUnits="userSpaceOnUse">
<stop stop-color="#3852AF"/>
<stop offset="1" stop-color="#010204"/>
</linearGradient>
<linearGradient id="paint32_linear_69_16545" x1="202.21" y1="1.12012" x2="57.7724" y2="149.19" gradientUnits="userSpaceOnUse">
<stop stop-color="#3852AF"/>
<stop offset="1" stop-color="#010204"/>
</linearGradient>
<linearGradient id="paint33_linear_69_16545" x1="202.21" y1="1.12012" x2="57.7724" y2="149.19" gradientUnits="userSpaceOnUse">
<stop stop-color="#3852AF"/>
<stop offset="1" stop-color="#010204"/>
</linearGradient>
<linearGradient id="paint34_linear_69_16545" x1="202.21" y1="1.12012" x2="57.7724" y2="149.19" gradientUnits="userSpaceOnUse">
<stop stop-color="#3852AF"/>
<stop offset="1" stop-color="#010204"/>
</linearGradient>
<linearGradient id="paint35_linear_69_16545" x1="202.21" y1="1.12012" x2="57.7724" y2="149.19" gradientUnits="userSpaceOnUse">
<stop stop-color="#3852AF"/>
<stop offset="1" stop-color="#010204"/>
</linearGradient>
<linearGradient id="paint36_linear_69_16545" x1="202.21" y1="1.12012" x2="57.7724" y2="149.19" gradientUnits="userSpaceOnUse">
<stop stop-color="#3852AF"/>
<stop offset="1" stop-color="#010204"/>
</linearGradient>
<linearGradient id="paint37_linear_69_16545" x1="202.21" y1="1.12012" x2="57.7724" y2="149.19" gradientUnits="userSpaceOnUse">
<stop stop-color="#3852AF"/>
<stop offset="1" stop-color="#010204"/>
</linearGradient>
<linearGradient id="paint38_linear_69_16545" x1="202.21" y1="1.12012" x2="57.7724" y2="149.19" gradientUnits="userSpaceOnUse">
<stop stop-color="#3852AF"/>
<stop offset="1" stop-color="#010204"/>
</linearGradient>
<linearGradient id="paint39_linear_69_16545" x1="202.21" y1="1.12012" x2="57.7724" y2="149.19" gradientUnits="userSpaceOnUse">
<stop stop-color="#3852AF"/>
<stop offset="1" stop-color="#010204"/>
</linearGradient>
<linearGradient id="paint40_linear_69_16545" x1="202.21" y1="1.12012" x2="57.7724" y2="149.19" gradientUnits="userSpaceOnUse">
<stop stop-color="#3852AF"/>
<stop offset="1" stop-color="#010204"/>
</linearGradient>
<linearGradient id="paint41_linear_69_16545" x1="202.21" y1="1.12012" x2="57.7724" y2="149.19" gradientUnits="userSpaceOnUse">
<stop stop-color="#3852AF"/>
<stop offset="1" stop-color="#010204"/>
</linearGradient>
</defs>
</svg>
